<?xml version="1.0" encoding="UTF-8"?>
<svg version="1.1" xmlns="http://www.w3.org/2000/svg" width="510" height="477">
<path d="M0 0 C2.4375 2.375 2.4375 2.375 4 5 C4 5.66 4 6.32 4 7 C5.06734375 7.00257812 6.1346875 7.00515625 7.234375 7.0078125 C18.745727 7.23144817 28.78632013 9.45001027 39.6484375 13.19140625 C41.81989433 13.93806998 44.00056225 14.6440975 46.1875 15.34375 C59.66791993 19.83501684 71.56606601 27.35706656 82.625 36.1875 C87.59422206 40.07914214 89.86191175 40.42331643 96 40 C99.31343748 41.7084912 101.60166052 43.89134719 102.8828125 47.45703125 C104.25330428 50.57657722 105.72194701 51.56591247 108.5 53.5 C122.46979128 64.25372422 134.41974992 83.75548405 138.375 100.8125 C139.294427 104.46466836 139.92470692 106.52957001 143.125 108.625 C144.07375 109.07875 145.0225 109.5325 146 110 C147 111 147 111 147.1875 113.875 C147 117 147 117 145 120 C145.26473417 124.76521502 146.27380607 129.13084758 147.4375 133.75 C148.45422301 137.8898626 149.12842047 141.90311163 149.46484375 146.14453125 C149.57131226 147.48596191 149.57131226 147.48596191 149.67993164 148.85449219 C149.80809554 150.63370864 149.91598999 152.41452325 150.00170898 154.19628906 C150.29548903 159.4112247 150.29548903 159.4112247 153.53125 163.37109375 C154.75328125 164.17740234 154.75328125 164.17740234 156 165 C156.625 168.5 156.625 168.5 156 172 C155.20980469 172.56203125 154.41960937 173.1240625 153.60546875 173.703125 C150.05517202 176.83292182 149.60879482 179.73525657 148.6875 184.25 C148.51927734 184.99507812 148.35105469 185.74015625 148.17773438 186.5078125 C147.76784592 188.33474389 147.38153286 190.16693711 147 192 C146.34 192 145.68 192 145 192 C145.66 187.71 146.32 183.42 147 179 C146.0234375 181.47395833 145.046875 183.94791667 144.0703125 186.421875 C143.1353291 188.6740248 142.12219206 190.83649459 141 193 C140.34 193 139.68 193 139 193 C140.34085789 188.72066632 141.64926634 184.66388871 143.75 180.6875 C145.23281798 178.12777051 145.23281798 178.12777051 144.6875 175.625 C144.460625 175.08875 144.23375 174.5525 144 174 C139.1763195 174 136.400777 175.7594681 132.375 178.125 C131.66585449 178.53226318 130.95670898 178.93952637 130.22607422 179.35913086 C125.37356538 182.15712783 120.56951578 185.03364183 115.8203125 188.00390625 C114 189 114 189 112 189 C112.0825 189.886875 112.165 190.77375 112.25 191.6875 C111.94608803 195.71433365 110.81763407 197.18236593 108 200 C107.34 200 106.68 200 106 200 C106.33 201.093125 106.66 202.18625 107 203.3125 C108.32985532 208.52890432 108.17693984 213.65248469 108 219 C107.34 219 106.68 219 106 219 C105.67 213.06 105.34 207.12 105 201 C103.35 201 101.7 201 100 201 C99.36835938 200.59910156 98.73671875 200.19820312 98.0859375 199.78515625 C95.83481616 198.65977422 95.83481616 198.65977422 93.0390625 200.30859375 C91.89220763 201.00386186 90.75463214 201.71458572 89.625 202.4375 C88.38476945 203.1894352 87.14251717 203.9380442 85.8984375 204.68359375 C85.2600293 205.0688623 84.62162109 205.45413086 83.96386719 205.85107422 C80.79471752 207.70512921 77.5350743 209.362624 74.25 211 C73.10015625 211.5775 71.9503125 212.155 70.765625 212.75 C68 214 68 214 66 214 C66 213.34 66 212.68 66 212 C67.02738281 211.49210938 68.05476562 210.98421875 69.11328125 210.4609375 C82.38342505 204.86375805 82.38342505 204.86375805 94 197 C94.45135161 194.71642896 94.83453065 192.426608 95.20703125 190.12890625 C96 188 96 188 98.07421875 186.71484375 C99.02748047 186.36099609 99.02748047 186.36099609 100 186 C99.40200087 183.18606499 98.79676869 180.37399808 98.1875 177.5625 C97.9390332 176.3878418 97.9390332 176.3878418 97.68554688 175.18945312 C95.47619133 165.05976639 91.7500005 155.66066407 87.875 146.0625 C87.41996094 144.92748047 86.96492187 143.79246094 86.49609375 142.62304688 C84.3913723 137.24797779 84.3913723 137.24797779 82 132 C79.74042735 131.15542392 77.450698 130.53109494 75.12890625 129.87890625 C73 129 73 129 71 126 C71.20625 124.824375 71.4125 123.64875 71.625 122.4375 C71.69848641 119.08774452 71.12223937 118.13477111 68.828125 115.60546875 C65.63973469 112.92738959 62.37354591 110.4371201 59 108 C57.87092211 107.16429434 56.74201437 106.32835875 55.61328125 105.4921875 C52.11831629 102.93202161 48.56720389 100.45811376 45 98 C44.41379883 97.59281738 43.82759766 97.18563477 43.22363281 96.76611328 C33.44340153 89.99621678 23.29508128 83.97010373 12.94287109 78.11865234 C11.3031423 77.17454109 9.69437119 76.17696249 8.09375 75.16796875 C6.04979021 73.76426883 6.04979021 73.76426883 3.625 74.25 C2.325625 74.62125 2.325625 74.62125 1 75 C-5.61744966 76.25503356 -5.61744966 76.25503356 -9 74 C-13.83849451 74.26880525 -17.93745677 76.82037885 -22.125 79.0625 C-22.93614258 79.49369141 -23.74728516 79.92488281 -24.58300781 80.36914062 C-41.88542207 89.69225496 -58.83708801 99.81518017 -75 111 C-76.76780103 112.2127653 -78.53822591 113.42172464 -80.3125 114.625 C-81.32763672 115.32496094 -81.32763672 115.32496094 -82.36328125 116.0390625 C-84 117 -84 117 -86 117 C-85.979375 118.216875 -85.95875 119.43375 -85.9375 120.6875 C-85.89594051 123.13950976 -85.9757516 124.92572331 -86.7421875 127.2734375 C-87.14125873 131.49391812 -85.20851323 134.31619428 -83.1875 137.9375 C-82.7860376 138.6787915 -82.3845752 139.42008301 -81.97094727 140.18383789 C-78.74882398 145.9908573 -75.09958707 151.41121888 -71.1003418 156.70874023 C-68 160.82261979 -68 160.82261979 -68 163 C-68.66 163 -69.32 163 -70 163 C-71.30932617 161.37036133 -71.30932617 161.37036133 -72.79296875 159.08203125 C-73.33800049 158.24510742 -73.88303223 157.40818359 -74.44458008 156.54589844 C-75.01974365 155.64387695 -75.59490723 154.74185547 -76.1875 153.8125 C-77.06281372 152.45366699 -77.06281372 152.45366699 -77.95581055 151.06738281 C-82.32786646 144.21464586 -86.35416262 137.26515958 -90 130 C-91.98 130 -93.96 130 -96 130 C-100.12021059 140.50716317 -103.75146021 151.07060441 -106.8125 161.9375 C-107.1019751 162.95384521 -107.3914502 163.97019043 -107.68969727 165.01733398 C-109.60198096 171.95365222 -110.94777378 178.88385643 -112 186 C-111.360625 186.309375 -110.72125 186.61875 -110.0625 186.9375 C-108 188 -108 188 -107 189 C-107.08507812 190.79824219 -107.08507812 190.79824219 -107.171875 192.6328125 C-106.80321189 195.83503745 -106.28377704 196.76738173 -103.75195312 198.84277344 C-100.64124519 200.66410644 -97.48894103 202.29301723 -94.25 203.875 C-93.15171875 204.4421875 -92.0534375 205.009375 -90.921875 205.59375 C-86.34805126 207.93616944 -81.79603616 210.1482275 -77 212 C-77 212.66 -77 213.32 -77 214 C-84.00004359 212.00181154 -90.0191443 208.99544732 -96.3125 205.375 C-98.05619498 204.37860287 -99.80220511 203.38624361 -101.55078125 202.3984375 C-102.31044189 201.96192871 -103.07010254 201.52541992 -103.8527832 201.07568359 C-105.95057778 200.02475887 -107.66885833 199.28411271 -110 199 C-110.66 199.66 -111.32 200.32 -112 201 C-113.32 201 -114.64 201 -116 201 C-116 206.28 -116 211.56 -116 217 C-116.66 217 -117.32 217 -118 217 C-118 211.39 -118 205.78 -118 200 C-118.99 199.67 -119.98 199.34 -121 199 C-123 196 -123 196 -123.28515625 192.5625 C-123.66068081 188.88347168 -123.66068081 188.88347168 -126.37109375 186.8125 C-127.38300781 186.214375 -128.39492187 185.61625 -129.4375 185 C-134.41519476 181.96597653 -139.10158978 178.7707069 -143.74609375 175.25 C-146.37072896 173.79439642 -148.04411579 173.74976642 -151 174 C-150.44119141 175.57201172 -150.44119141 175.57201172 -149.87109375 177.17578125 C-149.39275477 178.55452301 -148.91491617 179.93343843 -148.4375 181.3125 C-148.19064453 182.00279297 -147.94378906 182.69308594 -147.68945312 183.40429688 C-145.88671875 188.66015625 -145.88671875 188.66015625 -147 192 C-149.29817473 188.14499723 -150.90309312 185.38762753 -152 181 C-151.67 184.63 -151.34 188.26 -151 192 C-153 191 -153 191 -154.125 187.9375 C-155.19682285 183.90141709 -155.1459001 180.15815272 -155 176 C-155.598125 175.938125 -156.19625 175.87625 -156.8125 175.8125 C-159 175 -159 175 -160.8125 172.8125 C-162.28338484 169.32882538 -162.0926 167.58997144 -161 164 C-159.625 162.125 -159.625 162.125 -158 161 C-157.01 161 -156.02 161 -155 161 C-155.03480469 160.030625 -155.06960937 159.06125 -155.10546875 158.0625 C-155.48728333 142.59706144 -153.40568485 125.82394505 -146 112 C-146.99 111.67 -147.98 111.34 -149 111 C-150.54586876 107.90826248 -150.29359521 105.40570448 -150 102 C-148.375 99.625 -148.375 99.625 -146 98 C-145.03707031 97.93683594 -144.07414062 97.87367188 -143.08203125 97.80859375 C-139.75004953 97.2918079 -139.75004953 97.2918079 -138.05078125 94.18359375 C-137.45367912 92.94325054 -136.87541037 91.69373013 -136.3125 90.4375 C-129.54306206 76.67436053 -120.71705664 64.92783083 -110 54 C-109.22011719 53.19304687 -108.44023437 52.38609375 -107.63671875 51.5546875 C-104.84556003 48.70739945 -102.32751928 46.21834619 -99 44 C-98.58714231 41.70972627 -98.56134381 39.51571272 -98.50390625 37.19140625 C-98 35 -98 35 -96.2890625 33.203125 C-93.48039388 31.72689644 -91.94473809 31.87563214 -88.8125 32.1875 C-83.33999356 32.32449291 -80.84227273 31.07291425 -76.546875 27.84375 C-58.70875675 14.93026562 -32.94747593 6.62159524 -11 7 C-10.8453125 6.1028125 -10.8453125 6.1028125 -10.6875 5.1875 C-8.92703098 -0.41399233 -5.53290485 -0.77654805 0 0 Z " fill="#2DA0FA" transform="translate(255,88)"/>
<path d="M0 0 C-0.56263615 5.39891284 -1.48383241 10.43893649 -3.125 15.625 C-3.34019287 16.31013672 -3.55538574 16.99527344 -3.77709961 17.70117188 C-6.12971498 24.86884524 -9.46847509 31.34739375 -13 38 C-13.62880946 39.37326205 -14.2544863 40.74796959 -14.875 42.125 C-19.74824729 51.83002014 -27.59648115 60.16765723 -35 68 C-35.74636719 68.81082031 -36.49273437 69.62164062 -37.26171875 70.45703125 C-44.13006973 77.66596162 -51.81208529 83.39934459 -60 89 C-61.03898437 89.7115625 -62.07796875 90.423125 -63.1484375 91.15625 C-87.10751446 106.67729728 -118.16227734 117.82346256 -147 116 C-147.20625473 109.67239951 -146.4718472 103.89037916 -145.25 97.6875 C-145.06735596 96.75760254 -144.88471191 95.82770508 -144.6965332 94.86962891 C-141.34248277 78.39799542 -134.50390639 63.98093941 -120.30859375 54.1328125 C-110.99533139 48.66870812 -100.77399739 45.90945786 -90.50830078 42.78027344 C-81.42229728 39.95383123 -73.13034571 36.19994878 -64.875 31.453125 C-62.16216511 30.08196389 -60.01149663 29.32266035 -57 29 C-56 30 -56 30 -55.5625 32.5 C-56.22762959 37.8210367 -58.35139185 41.10643229 -62 45 C-67.62902776 49.27631566 -73.71307765 52.73774552 -79.8828125 56.16796875 C-80.50994141 56.51851318 -81.13707031 56.86905762 -81.78320312 57.23022461 C-83.52644363 58.19543081 -85.28243394 59.13750467 -87.0390625 60.078125 C-90.10179694 62.066074 -91.90451 64.03564829 -94 67 C-82.71252921 66.34401472 -71.90027091 64.6600386 -62 59 C-61.14921875 58.56816406 -60.2984375 58.13632812 -59.421875 57.69140625 C-52.60341542 54.17742359 -46.76256492 50.05437091 -41 45 C-40.35804688 44.44183594 -39.71609375 43.88367188 -39.0546875 43.30859375 C-29.06807514 33.96964872 -21.03645902 21.97888935 -13.68359375 10.515625 C-6.64596273 0 -6.64596273 0 0 0 Z " fill="#1C99FA" transform="translate(400,284)"/>
<path d="M0 0 C6.50317857 1.23187964 10.72559605 6.01645682 14.35546875 11.30859375 C15.61000115 13.20234626 16.84237803 15.10901367 18.07006836 17.02026367 C22.60269826 24.05020081 27.72010066 30.52124327 33 37 C33.59167969 37.75925781 34.18335938 38.51851563 34.79296875 39.30078125 C49.49617772 57.41658687 70.60152859 64.63787833 93 67 C89.99374709 62.73067768 87.01422716 60.58978491 82.4375 58.125 C81.18392965 57.43143094 79.9313363 56.73609332 78.6796875 56.0390625 C77.74914551 55.52520996 77.74914551 55.52520996 76.79980469 55.00097656 C67.978407 50.09488181 59.00551258 44.76713658 55 35 C55.375 32.25 55.375 32.25 56 30 C61.2035235 30.1182619 64.37069184 31.65260145 68.8125 34.375 C73.39296883 37.17925212 77.49244026 38.98720889 82.66796875 40.33203125 C84.94254506 40.98354306 86.88025162 41.83364788 89 42.875 C92.70854144 44.62753197 96.37642083 45.63570707 100.34008789 46.60473633 C114.55853747 50.13457919 126.39874983 56.6998583 135 69 C139.72324087 76.97957214 141.92255744 84.95032289 143.45703125 93.98046875 C143.83728437 96.90945044 143.83728437 96.90945044 145 99 C145.23274209 101.87910588 145.41972757 104.74146495 145.5625 107.625 C145.60568359 108.42679687 145.64886719 109.22859375 145.69335938 110.0546875 C145.79951457 112.0362511 145.90026855 114.01810271 146 116 C128.24042103 116.99586424 110.50357926 113.53157528 94 107 C93.31019043 106.72704102 92.62038086 106.45408203 91.90966797 106.17285156 C75.47360469 99.554548 60.25447634 90.81469297 47 79 C46.15179688 78.26007813 45.30359375 77.52015625 44.4296875 76.7578125 C41.9194046 74.53924444 39.45334886 72.28125424 37 70 C36.26136719 69.32710938 35.52273437 68.65421875 34.76171875 67.9609375 C16.20131474 50.35657562 3.24583346 25.40704126 0 0 Z " fill="#1D99FA" transform="translate(104,284)"/>
<path d="M0 0 C7.32654816 -0.23580498 14.04570742 0.22028376 21.1875 1.875 C22.12021729 2.0905957 23.05293457 2.30619141 24.01391602 2.52832031 C44.88189079 7.70761333 67.5689784 17.5689784 83 33 C83 33.99 83 34.98 83 36 C77.80464606 36.24203378 72.60913861 36.45697248 67.41162109 36.64697266 C65.64406537 36.71539208 63.87677884 36.79118206 62.10986328 36.87451172 C59.56838393 36.99308552 57.02711195 37.08503023 54.484375 37.171875 C53.69569031 37.21439392 52.90700562 37.25691284 52.09442139 37.30072021 C48.41304232 37.40175962 46.49562646 37.41080041 43.60351562 35.01367188 C43.07435547 34.34916016 42.54519531 33.68464844 42 33 C39.21857957 32.49244153 36.8542771 32.80971486 34 33 C34 33.66 34 34.32 34 35 C33.01 35.495 33.01 35.495 32 36 C31.96648437 36.93714844 31.93296875 37.87429687 31.8984375 38.83984375 C31 42 31 42 29.41503906 43.06689453 C27.1787716 44.0146359 24.93364951 44.80786452 22.625 45.5625 C20.9781657 46.14430987 19.33232675 46.72894486 17.6875 47.31640625 C16.88441406 47.59758301 16.08132813 47.87875977 15.25390625 48.16845703 C11.42289714 49.58184709 7.80056465 51.4028878 4.1640625 53.25 C1.62314059 54.13060831 0.48657069 53.93114137 -2 53 C-2.99 52.505 -2.99 52.505 -4 52 C-7.5 51.75 -7.5 51.75 -11 52 C-11.66 52.66 -12.32 53.32 -13 54 C-18.25133657 53.66730663 -22.84410811 52.12331238 -27.6875 50.1875 C-33.63008606 47.83334835 -39.48948261 45.94854955 -45.7421875 44.54296875 C-48.37193082 42.74582582 -48.76974201 41.82290669 -49.7421875 38.84765625 C-50.21576683 35.9950406 -50.29000746 34.5513599 -48.93505859 31.9753418 C-47.16496434 29.88549032 -45.2887423 28.07891604 -43.25 26.25 C-42.53368408 25.57187256 -41.81736816 24.89374512 -41.0793457 24.19506836 C-22.71654643 7.23884881 -22.71654643 7.23884881 -13 4 C-12.505 4.495 -12.505 4.495 -12 5 C-6.94254559 5.32054109 -6.94254559 5.32054109 -2.09765625 4.24609375 C1.34616378 3.84207017 3.0974117 5.88490191 5.75 7.9375 C6.73484375 8.68902344 7.7196875 9.44054687 8.734375 10.21484375 C9.85585938 11.09849609 9.85585938 11.09849609 11 12 C8.35915215 9.20380816 5.93715383 6.95968359 2.6875 4.875 C1.800625 4.25625 0.91375 3.6375 0 3 C0 2.01 0 1.02 0 0 Z " fill="#F9FBFD" transform="translate(259,97)"/>
<path d="M0 0 C7.53331986 0.50222132 13.92332138 2.44309787 21 5 C22.18335938 5.37253906 23.36671875 5.74507812 24.5859375 6.12890625 C33.38772202 9.07254942 33.38772202 9.07254942 35.19140625 11.8046875 C35.6875 13.6875 35.6875 13.6875 36 17 C36.66 17.66 37.32 18.32 38 19 C37.60645398 23.7672734 35.45461426 28.25981386 33.75 32.6875 C28.43609426 46.82696759 24.69463515 61.14664528 22 76 C20.35 76 18.7 76 17 76 C15.02 72.535 15.02 72.535 13 69 C13.515625 69.9075 14.03125 70.815 14.5625 71.75 C16 75 16 75 15.6875 77.375 C15.460625 77.91125 15.23375 78.4475 15 79 C10.49367402 77.47805217 6.91822632 74.98099313 3.125 72.1875 C2.53847656 71.76146484 1.95195313 71.33542969 1.34765625 70.89648438 C0.1637137 70.03649973 -1.01713356 69.17223743 -2.19482422 68.30371094 C-3.43482135 67.40817609 -4.69304444 66.53751121 -5.96533203 65.68847656 C-10.7276793 62.48110691 -11.57578487 60.49340122 -13 55 C-14.299375 54.38125 -14.299375 54.38125 -15.625 53.75 C-18 52 -18 52 -18.4296875 49.94140625 C-18.81623776 35.48872147 -14.61853428 18.2597409 -9 5 C-8.67 5 -8.34 5 -8 5 C-7.82984375 6.29292969 -7.6596875 7.58585938 -7.484375 8.91796875 C-6.10398147 18.96669193 -4.4431532 28.4220916 -1 38 C-1.27714844 36.71867187 -1.55429688 35.43734375 -1.83984375 34.1171875 C-3.96654507 24.04559833 -5.65851559 14.31282927 -6 4 C-5.38125 3.896875 -4.7625 3.79375 -4.125 3.6875 C-1.63473516 3.12474627 -1.63473516 3.12474627 0 0 Z " fill="#F9FBFD" transform="translate(119,197)"/>
<path d="M0 0 C7.36303775 5.32871392 10.12828925 12.67287874 11.5625 21.4375 C10.77776785 25.01239092 8.86283317 25.78781073 6 28 C1.25399597 35.20624877 1.34453681 42.04325273 1.25 50.5 C1.20552734 52.4490625 1.20552734 52.4490625 1.16015625 54.4375 C1.0898424 57.62506106 1.03695232 60.81190682 1 64 C-7.28897136 63.60442731 -14.82611091 62.58248451 -22.75 60.125 C-24.05130859 59.74021484 -24.05130859 59.74021484 -25.37890625 59.34765625 C-30.95871299 57.68291631 -36.48691624 55.87284175 -42 54 C-42.09958538 48.89548298 -42.17180331 43.79154323 -42.21972656 38.6862793 C-42.2397241 36.95310605 -42.26693148 35.21999925 -42.30175781 33.48706055 C-42.6628299 15.04583454 -42.6628299 15.04583454 -38 8 C-37.4225 7.0925 -36.845 6.185 -36.25 5.25 C-27.1776288 -3.8223712 -11.34967921 -7.11586629 0 0 Z " fill="#1A98F9" transform="translate(225,251)"/>
<path d="M0 0 C8.30823812 5.25623228 12.95813033 10.62439099 16.0625 19.9375 C16.14647157 22.29430213 16.16978187 24.65344081 16.16015625 27.01171875 C16.1587413 27.6955513 16.15732635 28.37938385 16.15586853 29.0839386 C16.15027876 31.26433722 16.13772822 33.44463251 16.125 35.625 C16.11998367 37.10481622 16.115421 38.58463406 16.11132812 40.06445312 C16.10031271 43.68883557 16.08305512 47.3131577 16.0625 50.9375 C12.44001757 52.07071468 8.81409469 53.19252223 5.1875 54.3125 C4.17429687 54.62960937 3.16109375 54.94671875 2.1171875 55.2734375 C-3.58082365 57.0266717 -9.2039384 58.5012186 -15.07861328 59.52978516 C-16.94345006 59.76371744 -16.94345006 59.76371744 -17.9375 60.9375 C-20.27047433 60.97842937 -22.60455225 60.97991723 -24.9375 60.9375 C-24.95208252 60.12071777 -24.96666504 59.30393555 -24.98168945 58.46240234 C-25.05636923 54.7453024 -25.15296612 51.02908081 -25.25 47.3125 C-25.27255859 46.02730469 -25.29511719 44.74210937 -25.31835938 43.41796875 C-25.35380859 42.17402344 -25.38925781 40.93007813 -25.42578125 39.6484375 C-25.45196533 38.50681152 -25.47814941 37.36518555 -25.50512695 36.18896484 C-26.34374939 29.88248623 -29.35719297 26.15620384 -33.9375 21.9375 C-34.9375 20.9375 -34.9375 20.9375 -35.375 17.9375 C-35.28798436 12.65129966 -32.27209556 8.82543456 -28.9375 4.9375 C-21.43430795 -1.74255705 -9.56217698 -3.63318146 0 0 Z " fill="#1C99FA" transform="translate(300.9375,254.0625)"/>
<path d="M0 0 C0.268125 0.804375 0.53625 1.60875 0.8125 2.4375 C1.4003125 3.7059375 1.4003125 3.7059375 2 5 C2.99 5.33 3.98 5.66 5 6 C0.73984414 25.73124821 -7.75663386 43.35168169 -18.1875 60.5 C-18.68652832 61.34409424 -19.18555664 62.18818848 -19.69970703 63.05786133 C-20.42649658 64.22031372 -20.42649658 64.22031372 -21.16796875 65.40625 C-21.59360107 66.10041016 -22.0192334 66.79457031 -22.45776367 67.50976562 C-24 69 -24 69 -26.67700195 69.22460938 C-27.44359131 69.15048828 -28.21018066 69.07636719 -29 69 C-30.70393276 65.12235862 -31.80557577 61.18501919 -32.90307617 57.10791016 C-36.27102933 44.64978652 -40.67289127 32.74412831 -45.90917969 20.95263672 C-48.01197413 16.20356013 -48.01197413 16.20356013 -47.875 13.875 C-47.58625 13.25625 -47.2975 12.6375 -47 12 C-46.64035156 11.18015625 -46.28070313 10.3603125 -45.91015625 9.515625 C-43.32150364 6.10643833 -40.5744406 5.65162253 -36.5625 4.875 C-35.45479248 4.63861816 -35.45479248 4.63861816 -34.32470703 4.39746094 C-23.09960044 2.08276493 -11.49704321 -0.30823172 0 0 Z " fill="#F9FBFD" transform="translate(387,204)"/>
<path d="M0 0 C3.33936481 0.9002757 6.56599565 2.06195883 9.8125 3.25 C10.66392578 3.55035156 11.51535156 3.85070312 12.39257812 4.16015625 C18.05104084 6.18565319 23.54362893 8.48231112 29 11 C29 12.98 29 14.96 29 17 C25.54235396 18.95954853 22.08373925 20.91738181 18.625 22.875 C17.05782227 23.76312378 17.05782227 23.76312378 15.45898438 24.66918945 C10.65258794 27.38873301 5.84321599 30.099013 0.9921875 32.73828125 C-8.00436864 37.63579771 -16.5713578 42.88393321 -25.02587891 48.66308594 C-28.73673982 51.17615475 -32.49255757 53.61986342 -36.25 56.0625 C-36.97775635 56.54001709 -37.7055127 57.01753418 -38.45532227 57.50952148 C-39.13522217 57.95110596 -39.81512207 58.39269043 -40.515625 58.84765625 C-41.11665039 59.23961182 -41.71767578 59.63156738 -42.33691406 60.03540039 C-44 61 -44 61 -47 62 C-47.99 61.34 -48.98 60.68 -50 60 C-47.29704547 41.38583893 -36.65112121 24.37844359 -25 10 C-24.39414063 9.16082031 -23.78828125 8.32164062 -23.1640625 7.45703125 C-21.54376276 5.32718024 -20.16274829 3.5764032 -18 2 C-15.11510552 1.78227211 -12.87394944 2.38751897 -10 3 C-4.93729259 -0.42477266 -4.93729259 -0.42477266 0 0 Z " fill="#F9FBFD" transform="translate(215,142)"/>
<path d="M0 0 C0.495 0.495 0.495 0.495 1 1 C3.22492836 1.16246941 5.44618967 1.25441949 7.67578125 1.328125 C14.37519975 3.26476362 18.65876969 14.10459815 22 20 C26.54357342 28.41053166 30.76394524 36.99657655 34 46 C34.38285156 47.03382813 34.76570313 48.06765625 35.16015625 49.1328125 C38.38917694 58.21785376 38.38917694 58.21785376 37 62 C31.97365226 61.58584401 29.05595881 58.89974245 25.375 55.75 C8.49729244 41.79809926 -10.32525473 30.18528568 -29.40234375 19.49609375 C-32 18 -32 18 -33 17 C-33.375 14.125 -33.375 14.125 -33 11 C-27.55295883 6.54332995 -19.43962503 4.30635682 -12.875 1.75 C-12.18535156 1.46898437 -11.49570312 1.18796875 -10.78515625 0.8984375 C-6.82095319 -0.63266961 -4.07777255 -1.44645517 0 0 Z " fill="#F8FBFD" transform="translate(293,142)"/>
<path d="M0 0 C5.232466 0.44849709 8.00929342 4.88452155 11.22265625 8.58984375 C38.57660414 41.4860317 38.57660414 41.4860317 37.875 53.0625 C36.71805273 55.62431181 35.70608292 57.73727138 34 60 C31.1640625 60.78515625 31.1640625 60.78515625 27.625 61.0625 C26.28975433 61.19176081 24.95513368 61.32758758 23.62109375 61.46875 C22.89132324 61.54480469 22.16155273 61.62085938 21.40966797 61.69921875 C16.79905813 62.2747275 12.2477343 63.18114627 7.6875 64.0625 C6.76211426 64.23724854 5.83672852 64.41199707 4.88330078 64.59204102 C0.30826038 65.38495069 0.30826038 65.38495069 -4 67 C-7.8158458 67.49771902 -9.41832208 67.42561799 -12.5625 65.125 C-14.46811736 60.98235357 -13.56708156 58.96599538 -12.08984375 54.79296875 C-11.49434596 53.26687227 -10.89833263 51.74097507 -10.29980469 50.21606445 C-8.3507443 45.15290855 -6.79644888 40.04641518 -5.375 34.8125 C-5.1584375 34.03197266 -4.941875 33.25144531 -4.71875 32.44726562 C-3.22797529 27.02250208 -1.93119368 21.81971293 -1.71875 16.171875 C-1.68136719 15.29015625 -1.64398438 14.4084375 -1.60546875 13.5 C-1.53455787 11.65106452 -1.46425538 9.80210561 -1.39453125 7.953125 C-1.35714844 7.0765625 -1.31976563 6.2 -1.28125 5.296875 C-1.25095703 4.49604492 -1.22066406 3.69521484 -1.18945312 2.87011719 C-1 1 -1 1 0 0 Z " fill="#F7FBFD" transform="translate(352,142)"/>
<path d="M0 0 C1.00268921 -0.02827881 1.00268921 -0.02827881 2.02563477 -0.05712891 C3.97880262 -0.11175965 5.93286833 -0.1306122 7.88671875 -0.1484375 C9.62828247 -0.1781665 9.62828247 -0.1781665 11.4050293 -0.20849609 C14.3125 0.375 14.3125 0.375 16.04833984 2.82348633 C16.4655127 3.66548584 16.88268555 4.50748535 17.3125 5.375 C18.62541016 6.04208984 18.62541016 6.04208984 19.96484375 6.72265625 C22.3125 8.375 22.3125 8.375 22.94140625 11.68359375 C22.9522617 13.06003102 22.92753613 14.43702286 22.875 15.8125 C22.85695313 16.56184814 22.83890625 17.31119629 22.8203125 18.08325195 C22.25673635 31.75983616 18.8278617 44.70021156 14.3125 57.5625 C13.81459961 59.00725708 13.81459961 59.00725708 13.30664062 60.48120117 C12.97857422 61.36783447 12.65050781 62.25446777 12.3125 63.16796875 C12.02375 63.9571167 11.735 64.74626465 11.4375 65.55932617 C10.3125 67.375 10.3125 67.375 8.1875 68.13793945 C7.259375 68.25528442 7.259375 68.25528442 6.3125 68.375 C5.92320312 67.17488281 5.53390625 65.97476563 5.1328125 64.73828125 C-0.96061635 46.40407056 -8.69361392 23.36888608 -22.6875 9.375 C-22.32473355 6.54542171 -21.59055236 4.08415709 -20.6875 1.375 C-13.79765033 0.0821319 -6.99168022 0.07514263 0 0 Z " fill="#F9FCFD" transform="translate(326.6875,134.625)"/>
<path d="M0 0 C-0.58342358 3.66635663 -1.25231229 7.30789709 -1.97265625 10.94921875 C-5.30550893 28.2036748 -6.90681842 43.66235714 -1.875 60.6796875 C-1.08647247 63.67186788 -0.67495886 65.9369004 -1 69 C-2.6875 70.875 -2.6875 70.875 -5 72 C-8.92586585 71.47518807 -12.57293186 70.21141882 -16.3125 68.9375 C-17.91544922 68.39416016 -17.91544922 68.39416016 -19.55078125 67.83984375 C-20.76314453 67.42412109 -20.76314453 67.42412109 -22 67 C-22 66.34 -22 65.68 -22 65 C-22.64066406 64.96261719 -23.28132813 64.92523438 -23.94140625 64.88671875 C-29.54666682 64.46068553 -34.14413681 63.93375068 -39 61 C-40.375 58 -40.375 58 -41 55 C-41.495 53.515 -41.495 53.515 -42 52 C-40.82802945 49.28548723 -39.59960314 46.77402838 -38.1875 44.1875 C-37.77733643 43.42920898 -37.36717285 42.67091797 -36.94458008 41.88964844 C-31.32565691 31.72298586 -12.92088962 0 0 0 Z " fill="#F8FBFD" transform="translate(159,133)"/>
<path d="M0 0 C5.02000437 4.43004659 7.70892948 9.1847853 8.22705078 15.97607422 C8.21657715 16.9920166 8.20610352 18.00795898 8.1953125 19.0546875 C8.18886719 20.16328125 8.18242187 21.271875 8.17578125 22.4140625 C8.15902344 23.55617188 8.14226562 24.69828125 8.125 25.875 C8.11597656 27.0403125 8.10695313 28.205625 8.09765625 29.40625 C8.07417432 32.27104577 8.04133141 35.13541535 8 38 C3.17927196 38.77914664 -1.44282687 39.12836013 -6.32421875 39.1328125 C-6.99290482 39.13376923 -7.66159088 39.13472595 -8.35054016 39.13571167 C-9.75135391 39.13638701 -11.15217092 39.13457821 -12.55297852 39.13037109 C-14.69229128 39.12498794 -16.83139656 39.13035104 -18.97070312 39.13671875 C-20.33854213 39.13605835 -21.706381 39.13477798 -23.07421875 39.1328125 C-24.92406372 39.13112061 -24.92406372 39.13112061 -26.8112793 39.12939453 C-29.41788473 39.02362155 -31.52871547 38.77538044 -34 38 C-34.11703447 33.83357303 -34.18753101 29.6675741 -34.25 25.5 C-34.30027344 23.74042969 -34.30027344 23.74042969 -34.3515625 21.9453125 C-34.44521625 13.61012898 -33.55339301 8.04614868 -28 1.72265625 C-27.34 1.17480469 -26.68 0.62695312 -26 0.0625 C-25.34 -0.50339844 -24.68 -1.06929688 -24 -1.65234375 C-16.74568702 -6.54050387 -6.91784219 -4.43418081 0 0 Z " fill="#1C99F9" transform="translate(264,278)"/>
<path d="M0 0 C2.4375 2.375 2.4375 2.375 4 5 C4 5.66 4 6.32 4 7 C5.06734375 7.00257812 6.1346875 7.00515625 7.234375 7.0078125 C18.745727 7.23144817 28.78632013 9.45001027 39.6484375 13.19140625 C41.81989433 13.93806998 44.00056225 14.6440975 46.1875 15.34375 C59.66791993 19.83501684 71.56606601 27.35706656 82.625 36.1875 C87.55636393 40.0480145 89.88899114 40.53605341 96 40 C99.0625 41.4375 99.0625 41.4375 101 44 C101.26252023 47.14465719 101.01672511 50.00759315 100 53 C99.01 53.66 98.02 54.32 97 55 C96.41407366 58.11610554 96.41407366 58.11610554 96.3125 61.625 C96.21388672 63.40777344 96.21388672 63.40777344 96.11328125 65.2265625 C96.07589844 66.14179688 96.03851563 67.05703125 96 68 C95.67 68 95.34 68 95 68 C95 63.38 95 58.76 95 54 C93.35 54 91.7 54 90 54 C87.6875 52.1875 87.6875 52.1875 86 50 C86 49.01 86 48.02 86 47 C68.675 47.495 68.675 47.495 51 48 C50.67 49.65 50.34 51.3 50 53 C47.51231356 55.77472719 46.13335822 55.9885036 42.375 56.3125 C39 56 39 56 37 54 C27.65686482 54.7977496 18.26909566 59.21467054 9.8671875 63.203125 C7.93377824 64.02826201 6.04919961 64.54462231 4 65 C4.103125 66.0725 4.20625 67.145 4.3125 68.25 C4 72 4 72 1.9375 74.5 C-1.87361366 76.44610059 -3.89239037 75.97088955 -8 75 C-8.63099609 74.77135254 -9.26199219 74.54270508 -9.91210938 74.30712891 C-12.85045492 73.874898 -14.2648529 74.85085563 -16.84375 76.2734375 C-17.76027344 76.7684375 -18.67679688 77.2634375 -19.62109375 77.7734375 C-21.04615234 78.56621094 -21.04615234 78.56621094 -22.5 79.375 C-24.38336356 80.4074001 -26.26870835 81.43619618 -28.15625 82.4609375 C-28.98962891 82.92290527 -29.82300781 83.38487305 -30.68164062 83.86083984 C-32.80613825 84.90474316 -34.68853746 85.53518058 -37 86 C-34.23666269 82.99524477 -31.73591342 81.15057786 -28.05078125 79.4140625 C-26.65569336 78.72957031 -26.65569336 78.72957031 -25.23242188 78.03125 C-23.27931849 77.09062496 -21.32088972 76.16098144 -19.35742188 75.2421875 C-13.7528295 72.72454683 -13.7528295 72.72454683 -10.85546875 67.6484375 C-10.90316406 66.77445312 -10.95085937 65.90046875 -11 65 C-11.66386719 64.89429688 -12.32773438 64.78859375 -13.01171875 64.6796875 C-16.74756822 63.82996487 -20.24666195 62.50034676 -23.8125 61.125 C-24.48603516 60.86847656 -25.15957031 60.61195313 -25.85351562 60.34765625 C-28.63222871 59.28935213 -31.41030482 58.23019904 -34.18017578 57.14892578 C-38.330382 55.54844479 -41.52768041 54.39013824 -46 55 C-47.34789347 55.98028616 -48.68212715 56.97971135 -50 58 C-52.65887143 58.33235893 -54.64585762 58.07869831 -57.25 57.5 C-59.44306536 55.62022969 -59.39262994 54.68432578 -59.75 51.875 C-59.87375 49.956875 -59.87375 49.956875 -60 48 C-60.85271484 47.81824219 -60.85271484 47.81824219 -61.72265625 47.6328125 C-66.54245464 46.58677946 -71.2732934 45.40795516 -76 44 C-75.67 43.34 -75.34 42.68 -75 42 C-74.11957031 42.22816406 -73.23914063 42.45632812 -72.33203125 42.69140625 C-70.58986328 43.12259766 -70.58986328 43.12259766 -68.8125 43.5625 C-67.66394531 43.85253906 -66.51539063 44.14257812 -65.33203125 44.44140625 C-62.0779659 44.98692951 -60.1123982 45.01166762 -57 44 C-56.34 43.34 -55.68 42.68 -55 42 C-53.76507813 41.91492188 -52.53015625 41.82984375 -51.2578125 41.7421875 C-46.21720233 41.21291207 -44.10670663 38.81061855 -40.875 35.125 C-36.40791444 30.35305486 -31.8547686 26.01001211 -26.6875 22 C-26.10057373 21.54439697 -25.51364746 21.08879395 -24.90893555 20.61938477 C-21.77269255 18.2312854 -18.58488939 16.05846627 -15.1875 14.0625 C-11.88389799 12.39828399 -11.88389799 12.39828399 -11.30078125 9.87109375 C-11.20152344 9.25363281 -11.10226563 8.63617188 -11 8 C-11.66 7.67 -12.32 7.34 -13 7 C-12.34 7 -11.68 7 -11 7 C-10.896875 6.401875 -10.79375 5.80375 -10.6875 5.1875 C-8.92703098 -0.41399233 -5.53290485 -0.77654805 0 0 Z M4 9 C4.28144987 12.20419855 5.00288207 13.00246392 7.50390625 15.140625 C8.51324219 15.83671875 9.52257812 16.5328125 10.5625 17.25 C11.57441406 17.95640625 12.58632813 18.6628125 13.62890625 19.390625 C14.41136719 19.92171875 15.19382812 20.4528125 16 21 C15.24074219 20.50628906 14.48148438 20.01257813 13.69921875 19.50390625 C12.20841797 18.54291016 12.20841797 18.54291016 10.6875 17.5625 C9.70136719 16.92441406 8.71523438 16.28632812 7.69921875 15.62890625 C5.04723007 13.89384394 5.04723007 13.89384394 2 13 C1.34 13.33 0.68 13.66 0 14 C-1.875 14.1328125 -1.875 14.1328125 -4 14.125 C-5.051875 14.12886719 -5.051875 14.12886719 -6.125 14.1328125 C-8 14 -8 14 -10 13 C-18.30807432 17.05567198 -25.48546451 23.36542928 -32.32421875 29.50439453 C-33.46483893 30.52237811 -34.61641593 31.52818716 -35.77734375 32.52294922 C-37.52638609 34.02752749 -39.23410516 35.56909392 -40.9375 37.125 C-41.47624756 37.5789917 -42.01499512 38.0329834 -42.57006836 38.50073242 C-44.69046688 40.51171852 -45.91217173 42.29690914 -46.27685547 45.21630859 C-46.01092213 48.0129164 -45.54227395 49.64090133 -44 52 C-40.30990447 54.24326367 -36.4026367 55.2711961 -32.25 56.375 C-30.08749661 57.00423198 -27.92600249 57.63694486 -25.765625 58.2734375 C-24.75467773 58.56226807 -23.74373047 58.85109863 -22.70214844 59.14868164 C-19.61395246 60.1216252 -16.8483173 61.46949184 -14 63 C-11.33071879 63.41870553 -11.33071879 63.41870553 -9 63 C-8.34 62.34 -7.68 61.68 -7 61 C-2.66356399 60.68462284 -0.67346771 60.55102153 3 63 C7.0562288 62.64431046 10.31167544 61.02404783 13.9375 59.25 C20.8180609 55.99078694 27.79679473 53.44066625 35 51 C35.185625 49.5459375 35.185625 49.5459375 35.375 48.0625 C35.684375 46.5465625 35.684375 46.5465625 36 45 C36.66 44.67 37.32 44.34 38 44 C38 43.34 38 42.68 38 42 C43.859375 41.609375 43.859375 41.609375 46 42 C46.52916016 42.66451172 47.05832031 43.32902344 47.60351562 44.01367188 C51.0471457 46.86792761 54.23608939 46.40090508 58.484375 46.171875 C59.70776581 46.13009125 59.70776581 46.13009125 60.95587158 46.08746338 C63.55507068 45.99425905 66.15203408 45.8725229 68.75 45.75 C70.51425095 45.6817085 72.27857508 45.61528033 74.04296875 45.55078125 C78.36312513 45.38877927 82.68149809 45.20118424 87 45 C86.13425132 39.91611619 82.95274505 37.97500072 79 35 C58.12931966 20.24874491 29.94891767 7.57016168 4 9 Z " fill="#2B9FFA" transform="translate(255,88)"/>
<path d="M0 0 C4.471801 0.6438549 8.65298469 1.88970839 12.93359375 3.3046875 C13.660625 3.53865234 14.38765625 3.77261719 15.13671875 4.01367188 C16.90439636 4.58351531 18.66930344 5.16194154 20.43359375 5.7421875 C20.99673728 9.60374314 21.42986744 13.21392301 19.2265625 16.59375 C18.03790671 17.8575667 16.83437819 19.10746429 15.62109375 20.34765625 C3.06256252 34.09476276 -5.15704541 52.47461537 -11.56640625 69.7421875 C-12.55640625 69.7421875 -13.54640625 69.7421875 -14.56640625 69.7421875 C-15.21762455 67.07673586 -15.86247786 64.40999694 -16.50390625 61.7421875 C-16.68630859 60.99839844 -16.86871094 60.25460938 -17.05664062 59.48828125 C-21.12858502 42.46015016 -21.72667302 20.68724864 -13.56640625 4.7421875 C-10.00390625 3.1171875 -10.00390625 3.1171875 -6.56640625 2.7421875 C-5.85484375 1.906875 -5.85484375 1.906875 -5.12890625 1.0546875 C-3.56640625 -0.2578125 -3.56640625 -0.2578125 0 0 Z " fill="#F7FAFD" transform="translate(174.56640625,130.2578125)"/>
<path d="M0 0 C1.17175781 0.01353516 1.17175781 0.01353516 2.3671875 0.02734375 C2.94726562 0.03894531 3.52734375 0.05054687 4.125 0.0625 C3.94921875 1.84375 3.94921875 1.84375 3.125 4.0625 C0.89453125 5.78125 0.89453125 5.78125 -2.0625 7.5625 C-7.0414609 10.74547858 -11.58648412 14.14279377 -16.0625 18 C-16.65522705 18.50958252 -17.2479541 19.01916504 -17.85864258 19.54418945 C-21.36609073 22.61046144 -24.58329049 25.8271195 -27.75 29.25 C-31.75187881 33.40866884 -34.2069747 33.86705085 -39.875 34.0625 C-40.37 34.59875 -40.865 35.135 -41.375 35.6875 C-41.87 36.14125 -42.365 36.595 -42.875 37.0625 C-48.80962053 36.63578503 -54.20866127 35.25293148 -59.875 33.5 C-60.64972656 33.26603516 -61.42445313 33.03207031 -62.22265625 32.79101562 C-64.1085214 32.22059962 -65.9920209 31.64237197 -67.875 31.0625 C-68.1328125 28.27734375 -68.1328125 28.27734375 -67.875 25.0625 C-57.49117208 13.60200789 -36.63992333 7.52744803 -22.125 3.875 C-21.12339844 3.61525391 -20.12179688 3.35550781 -19.08984375 3.08789062 C-12.73208345 1.4584514 -6.60395066 -0.10005986 0 0 Z " fill="#F6FAFD" transform="translate(239.875,96.9375)"/>
<path d="M0 0 C0.99 0 1.98 0 3 0 C11.76441762 27.99508152 11.76441762 27.99508152 9 40 C7.33812095 41.0079364 5.67108483 42.00740074 4 43 C3.74911621 43.93231445 3.49823242 44.86462891 3.23974609 45.82519531 C1.64252764 49.91543334 -0.7617942 51.28456616 -4.43359375 53.33984375 C-5.06733414 53.7110585 -5.70107452 54.08227325 -6.35401917 54.46473694 C-7.6897842 55.24201113 -9.03066915 56.01054514 -10.3762207 56.77075195 C-12.4391159 57.93841465 -14.48259362 59.13548013 -16.52539062 60.33789062 C-17.82709013 61.0903348 -19.12979226 61.84104771 -20.43359375 62.58984375 C-21.04617538 62.94803696 -21.65875702 63.30623016 -22.28990173 63.67527771 C-23.81790879 64.53007524 -25.40636078 65.27488041 -27 66 C-27.99 65.67 -28.98 65.34 -30 65 C-28.51460136 60.88069862 -26.43468425 57.31866374 -24.125 53.625 C-14.21269937 37.29084882 -5.83551176 21.38555069 -1.47387695 2.67626953 C-1 1 -1 1 0 0 Z " fill="#F5FAFD" transform="translate(394,210)"/>
<path d="M0 0 C0.33 0 0.66 0 1 0 C1.17015625 1.29292969 1.3403125 2.58585938 1.515625 3.91796875 C3.4485508 18.77791689 3.4485508 18.77791689 8 33 C8.66 33.33 9.32 33.66 10 34 C10.99706596 36.21937272 11.89298347 38.41438441 12.75 40.6875 C13.27964507 42.05531005 13.81093681 43.42248344 14.34375 44.7890625 C14.61574219 45.48805664 14.88773438 46.18705078 15.16796875 46.90722656 C16.90522499 51.2768746 18.81611812 55.57226957 20.703125 59.87890625 C22.48313881 64.16273466 23.9566351 68.47875208 25 73 C18.48568516 73 14.20048782 68.65220333 9 65 C7.95714844 64.31808594 6.91429688 63.63617188 5.83984375 62.93359375 C-0.05328078 58.96602242 -2.63840286 56.94414542 -4 50 C-5.299375 49.38125 -5.299375 49.38125 -6.625 48.75 C-9 47 -9 47 -9.4296875 44.94140625 C-9.81623776 30.48872147 -5.61853428 13.2597409 0 0 Z " fill="#F5FAFD" transform="translate(110,202)"/>
<path d="M0 0 C5.49467746 2.18102189 9.5024504 5.58864254 12 11 C12.97887999 16.01559461 12.4005968 19.92864187 9.875 24.375 C7.31991172 27.92805905 5.30406136 29.74790942 1 31 C-3.93876441 31.66721469 -8.74789015 32.20190318 -13.26171875 29.79296875 C-17.11210507 26.6044937 -19.562878 23.49120857 -20.44140625 18.484375 C-20.68530853 12.97690407 -20.3775024 9.69579391 -16.6875 5.4375 C-11.41960811 0.12543292 -7.35512027 -1.05695802 0 0 Z " fill="#1C99FA" transform="translate(215,212)"/>
<path d="M0 0 C0.99 1.98 0.99 1.98 2 4 C1.53851563 4.47566406 1.07703125 4.95132813 0.6015625 5.44140625 C-13.36026744 20.42416052 -25.44780217 40.87449379 -30 61 C-28.16627569 61.67415022 -28.16627569 61.67415022 -26 62 C-23.41029348 60.6615338 -21.10234458 59.29334124 -18.6875 57.6875 C-17.98036865 57.23181641 -17.2732373 56.77613281 -16.54467773 56.30664062 C-11.23280615 52.867495 -5.99229747 49.31934162 -0.75048828 45.7746582 C6.62258259 40.83487641 14.31027561 36.42370926 22 32 C22.66 32.66 23.32 33.32 24 34 C22.61554688 34.74830078 22.61554688 34.74830078 21.203125 35.51171875 C8.40035263 42.5245856 -3.78125232 50.43265443 -15.8671875 58.609375 C-16.94226563 59.33640625 -18.01734375 60.0634375 -19.125 60.8125 C-20.03507812 61.43769531 -20.94515625 62.06289062 -21.8828125 62.70703125 C-24 64 -24 64 -26 64 C-25.979375 65.216875 -25.95875 66.43375 -25.9375 67.6875 C-25.89594051 70.13950976 -25.9757516 71.92572331 -26.7421875 74.2734375 C-27.14125873 78.49391812 -25.20851323 81.31619428 -23.1875 84.9375 C-22.7860376 85.6787915 -22.3845752 86.42008301 -21.97094727 87.18383789 C-18.74882398 92.9908573 -15.09958707 98.41121888 -11.1003418 103.70874023 C-8 107.82261979 -8 107.82261979 -8 110 C-8.66 110 -9.32 110 -10 110 C-11.30932617 108.37036133 -11.30932617 108.37036133 -12.79296875 106.08203125 C-13.33800049 105.24510742 -13.88303223 104.40818359 -14.44458008 103.54589844 C-15.01974365 102.64387695 -15.59490723 101.74185547 -16.1875 100.8125 C-16.77104248 99.90661133 -17.35458496 99.00072266 -17.95581055 98.06738281 C-22.32786646 91.21464586 -26.35416262 84.26515958 -30 77 C-31.98 77 -33.96 77 -36 77 C-40.12833604 87.52788432 -43.75730776 98.10817848 -46.8125 109 C-47.1019751 110.02472412 -47.3914502 111.04944824 -47.68969727 112.10522461 C-49.49815488 118.68622261 -50.89554503 125.26555888 -52 132 C-54 130 -54 130 -54.05126953 128.14575195 C-53.33336547 122.71488541 -52.30075718 117.47645303 -50.875 112.1875 C-50.66125732 111.3843335 -50.44751465 110.58116699 -50.22729492 109.75366211 C-44.41348746 88.5266 -44.41348746 88.5266 -39.88745117 79.87280273 C-38.81015962 78.02998283 -38.81015962 78.02998283 -39.25 75.9375 C-40.02485661 73.72770708 -40.02485661 73.72770708 -42 71 C-42.125 68.3125 -42.125 68.3125 -42 66 C-42.73863281 65.87109375 -43.47726563 65.7421875 -44.23828125 65.609375 C-46.77605773 65.049413 -48.82315614 64.30081949 -51.1875 63.25 C-58.8718717 60.06864672 -66.97690141 58.13250115 -75 56 C-74.67 55.01 -74.34 54.02 -74 53 C-68.72 54.32 -63.44 55.64 -58 57 C-58 57.66 -58 58.32 -58 59 C-56.96875 59.103125 -55.9375 59.20625 -54.875 59.3125 C-51 60 -51 60 -47.875 61.625 C-43.62554884 63.65734621 -41.28336444 62.42778815 -37 61 C-37.64389063 58.0620618 -38.29002779 55.124649 -38.9375 52.1875 C-39.21110352 50.93743164 -39.21110352 50.93743164 -39.49023438 49.66210938 C-39.66748047 48.85966797 -39.84472656 48.05722656 -40.02734375 47.23046875 C-40.18968506 46.49207764 -40.35202637 45.75368652 -40.51928711 44.99291992 C-41.01553608 42.81179355 -41.01553608 42.81179355 -42 40 C-42.0806622 38.51876453 -42.10761193 37.03417796 -42.09765625 35.55078125 C-42.09443359 34.70322266 -42.09121094 33.85566406 -42.08789062 32.98242188 C-42.07532227 31.66081055 -42.07532227 31.66081055 -42.0625 30.3125 C-42.05798828 29.41982422 -42.05347656 28.52714844 -42.04882812 27.60742188 C-42.03704983 25.40488013 -42.02060164 23.20247401 -42 21 C-41.67 21 -41.34 21 -41 21 C-40.505 27.435 -40.505 27.435 -40 34 C-39.67 34 -39.34 34 -39 34 C-38.51826171 36.66622447 -38.03955375 39.33293671 -37.5625 42 C-37.42779297 42.74378906 -37.29308594 43.48757812 -37.15429688 44.25390625 C-36.28016629 49.15756564 -35.57906538 54.05264526 -35 59 C-34.01 59 -33.02 59 -32 59 C-31.93683594 58.23558594 -31.87367188 57.47117188 -31.80859375 56.68359375 C-30.65623149 51.43394348 -28.39388876 46.88621221 -26.0625 42.0625 C-25.57031982 41.04067627 -25.07813965 40.01885254 -24.57104492 38.96606445 C-18.85722195 27.34896451 -12.02363185 16.99481589 -3.59375 7.1484375 C-1.89383176 4.85688105 -0.9413489 2.68284436 0 0 Z " fill="#47AEFB" transform="translate(195,141)"/>
<path d="M0 0 C4.77437413 2.36045057 9.09661053 4.82668502 11 10 C11.78168343 15.58345308 11.28213652 20.29560432 8 25 C2.90642375 28.92629836 -1.29319097 30.46977414 -7.64453125 30.41796875 C-11.75624973 29.68836033 -14.39373367 27.1477344 -17 24 C-19.90534009 19.3397565 -19.74702108 14.31386129 -19 9 C-17.28097403 5.32585865 -14.53454562 3.35636374 -11.1875 1.125 C-7.28961592 -0.25072379 -4.03346514 -0.91172358 0 0 Z " fill="#1D9AFA" transform="translate(294,219)"/>
<path d="M0 0 C0.66 0.99 1.32 1.98 2 3 C1.3675166 5.88197626 0.63520405 8.57161333 -0.25 11.375 C-5.17638778 27.92836498 -5.17638778 27.92836498 -5 45 C-2.67881567 46.82605543 -2.67881567 46.82605543 0 48 C0.26039062 49.08796875 0.52078125 50.1759375 0.7890625 51.296875 C2.30019717 55.91802232 3.94124681 56.93456166 8 59.5 C9.17356364 60.25851685 10.34673619 61.0176391 11.51953125 61.77734375 C12.10428223 62.14714355 12.6890332 62.51694336 13.29150391 62.89794922 C15.82139045 64.52983088 18.24786716 66.29955364 20.6875 68.0625 C23.57231453 70.3590194 23.57231453 70.3590194 27 71 C26.21302675 67.58978257 25.12880057 64.31114834 24 61 C26.79872437 63.52788007 28.45773019 65.20411134 29 69 C30.65 69 32.3 69 34 69 C34.33 68.34 34.66 67.68 35 67 C37 69 39 71 41 73 C40.91492188 74.79824219 40.91492188 74.79824219 40.828125 76.6328125 C41.19678811 79.83503745 41.71622296 80.76738173 44.24804688 82.84277344 C47.35875481 84.66410644 50.51105897 86.29301723 53.75 87.875 C55.39742187 88.72578125 55.39742187 88.72578125 57.078125 89.59375 C61.65194874 91.93616944 66.20396384 94.1482275 71 96 C71 96.66 71 97.32 71 98 C63.99995641 96.00181154 57.9808557 92.99544732 51.6875 89.375 C49.94380502 88.37860287 48.19779489 87.38624361 46.44921875 86.3984375 C45.68955811 85.96192871 44.92989746 85.52541992 44.1472168 85.07568359 C42.04942222 84.02475887 40.33114167 83.28411271 38 83 C37.34 83.66 36.68 84.32 36 85 C34.68 85 33.36 85 32 85 C32 90.28 32 95.56 32 101 C31.34 101 30.68 101 30 101 C30 95.39 30 89.78 30 84 C29.01 83.67 28.02 83.34 27 83 C25 80 25 80 24.71484375 76.5625 C24.33931919 72.88347168 24.33931919 72.88347168 21.62890625 70.8125 C20.61699219 70.214375 19.60507813 69.61625 18.5625 69 C13.58480524 65.96597653 8.89841022 62.7707069 4.25390625 59.25 C1.62927104 57.79439642 -0.04411579 57.74976642 -3 58 C-2.62746094 59.04800781 -2.25492188 60.09601563 -1.87109375 61.17578125 C-1.39275477 62.55452301 -0.91491617 63.93343843 -0.4375 65.3125 C-0.19064453 66.00279297 0.05621094 66.69308594 0.31054688 67.40429688 C2.11328125 72.66015625 2.11328125 72.66015625 1 76 C-1.29817473 72.14499723 -2.90309312 69.38762753 -4 65 C-3.67 68.63 -3.34 72.26 -3 76 C-5 75 -5 75 -6.125 71.9375 C-7.19682285 67.90141709 -7.1459001 64.15815272 -7 60 C-7.8971875 59.9071875 -7.8971875 59.9071875 -8.8125 59.8125 C-11 59 -11 59 -12.8125 56.8125 C-14.28338484 53.32882538 -14.0926 51.58997144 -13 48 C-11.625 46.125 -11.625 46.125 -10 45 C-9.01 45 -8.02 45 -7 45 C-7.03480469 44.030625 -7.06960937 43.06125 -7.10546875 42.0625 C-7.4702811 27.28573871 -4.72161112 13.99706039 0 0 Z " fill="#2CA0FA" transform="translate(107,204)"/>
<path d="M0 0 C3.20418952 1.6379869 5.24908562 3.97602584 7.375 6.875 C8.75017467 11.55059389 8.55896687 14.92347121 6.3125 19.25 C3.31970454 22.80900001 1.32201101 24.65514688 -3.3671875 25.3515625 C-8.03895863 25.61495612 -10.23835957 25.60296534 -14 22.625 C-14.99 21.325625 -14.99 21.325625 -16 20 C-16.66 19.34 -17.32 18.68 -18 18 C-18.68888725 13.96819676 -18.93093707 9.76161939 -16.984375 6.078125 C-12.04678064 0.06972704 -7.4448973 -1.14625946 0 0 Z " fill="#1F9BFA" transform="translate(256,245)"/>
<path d="M0 0 C0.33 0 0.66 0 1 0 C1.12375 1.8253125 1.12375 1.8253125 1.25 3.6875 C1.75252176 7.79506915 3.03023215 10.03023215 6 13 C9.68387707 14.84193854 13.97006153 14.36231308 18 14 C21.31034062 12.52091164 23.57767109 10.6773109 26 8 C26 8.66 26 9.32 26 10 C27.32 10.33 28.64 10.66 30 11 C29.91298828 11.88751953 29.91298828 11.88751953 29.82421875 12.79296875 C29.4804425 18.24823742 29.4804425 18.24823742 32.3125 22.8125 C33.199375 23.534375 34.08625 24.25625 35 25 C38.65192554 29.43448101 39.12340027 32.72853955 39.09765625 38.41796875 C39.09443359 39.67158203 39.09121094 40.92519531 39.08789062 42.21679688 C39.07532227 44.18229492 39.07532227 44.18229492 39.0625 46.1875 C39.05748317 47.52278481 39.05292059 48.85807141 39.04882812 50.19335938 C39.03702695 53.46228473 39.02056297 56.73111991 39 60 C38.67 60 38.34 60 38 60 C37.98541748 59.34402832 37.97083496 58.68805664 37.95581055 58.01220703 C37.88148586 55.04919969 37.78477631 52.08733883 37.6875 49.125 C37.65366211 47.57619141 37.65366211 47.57619141 37.61914062 45.99609375 C37.58369141 45.00996094 37.54824219 44.02382813 37.51171875 43.0078125 C37.48553467 42.09660645 37.45935059 41.18540039 37.43237305 40.24658203 C37.21834839 39.13452393 37.21834839 39.13452393 37 38 C36.01 37.34 35.02 36.68 34 36 C33.5875 34.7625 33.175 33.525 32.75 32.25 C31.06268804 27.39124828 28.25200351 24.77980444 24 22 C17.91341795 19.08902598 11.69068077 19.2247191 5.3125 21.0625 C-0.76151412 24.61522524 -4.18770836 29.59422459 -7 36 C-7.66 36 -8.32 36 -9 36 C-9.66 36.66 -10.32 37.32 -11 38 C-10.9700601 31.53298238 -9.57812596 27.60647106 -5.5703125 22.53125 C-4 21 -4 21 -1 20 C-2.01591421 14.53135543 -3.07091057 9.23609987 -5 4 C-4.34 3.67 -3.68 3.34 -3 3 C-3 3.66 -3 4.32 -3 5 C-2.01 5 -1.02 5 0 5 C0 3.35 0 1.7 0 0 Z " fill="#E6F4FD" transform="translate(237,255)"/>
<path d="M0 0 C0.226875 0.57878906 0.45375 1.15757812 0.6875 1.75390625 C2.35818665 4.61296823 4.34085983 5.96958518 7 7.9375 C22.27306809 20.15994221 34.93991571 40.7134161 38 60 C37.01 60.33 36.02 60.66 35 61 C34.01 58.69 33.02 56.38 32 54 C31.34 54 30.68 54 30 54 C29.5153125 53.12859375 29.030625 52.2571875 28.53125 51.359375 C19.74086456 35.68377838 9.76443459 20.76443459 -3 8 C-2.34 8 -1.68 8 -1 8 C-0.67 5.36 -0.34 2.72 0 0 Z " fill="#46ABFC" transform="translate(356,133)"/>
<path d="M0 0 C0.99 0.33 1.98 0.66 3 1 C2.42338608 3.27271763 1.838812 5.54293731 1.25 7.8125 C0.92515625 9.07707031 0.6003125 10.34164062 0.265625 11.64453125 C-2.36396949 21.0557695 -6.11864583 29.69073627 -10.6875 38.3125 C-11.20916748 39.30999268 -11.73083496 40.30748535 -12.26831055 41.33520508 C-15.96705701 48.3130662 -19.99545529 54.90805278 -24.55078125 61.35546875 C-26.23206138 63.81651935 -26.23206138 63.81651935 -25.74609375 66.14453125 C-25.49988281 66.75683594 -25.25367188 67.36914062 -25 68 C-24.55619597 74.21325648 -24.55619597 74.21325648 -26.375 77.4375 C-28 79 -28 79 -30 79 C-29.505 80.6396875 -29.505 80.6396875 -29 82.3125 C-27.67014468 87.52890432 -27.82306016 92.65248469 -28 98 C-28.66 98 -29.32 98 -30 98 C-30.495 89.09 -30.495 89.09 -31 80 C-32.65 80 -34.3 80 -36 80 C-36.63164062 79.59910156 -37.26328125 79.19820313 -37.9140625 78.78515625 C-40.16518384 77.65977422 -40.16518384 77.65977422 -42.9609375 79.30859375 C-44.10779237 80.00386186 -45.24536786 80.71458572 -46.375 81.4375 C-47.61523055 82.1894352 -48.85748283 82.9380442 -50.1015625 83.68359375 C-51.0591748 84.26149658 -51.0591748 84.26149658 -52.03613281 84.85107422 C-55.20528248 86.70512921 -58.4649257 88.362624 -61.75 90 C-62.89984375 90.5775 -64.0496875 91.155 -65.234375 91.75 C-68 93 -68 93 -70 93 C-70 92.34 -70 91.68 -70 91 C-68.97261719 90.49210937 -67.94523437 89.98421875 -66.88671875 89.4609375 C-53.61657495 83.86375805 -53.61657495 83.86375805 -42 76 C-41.70743606 74.54587031 -41.44054713 73.08652453 -41.1875 71.625 C-40.26684736 67.2501694 -40.26684736 67.2501694 -38 65.125 C-37.34 64.75375 -36.68 64.3825 -36 64 C-35.34 63.01 -34.68 62.02 -34 61 C-33.67 61.66 -33.34 62.32 -33 63 C-30.47266765 63.65555119 -30.47266765 63.65555119 -28 64 C-27.76539063 63.32582031 -27.53078125 62.65164063 -27.2890625 61.95703125 C-25.67827223 58.26197598 -23.56806922 55.05907618 -21.375 51.6875 C-11.29899378 35.81541551 -2.97157724 18.72093661 0 0 Z " fill="#269DFA" transform="translate(391,209)"/>
<path d="M0 0 C11.36152821 0.59148954 21.485408 3.56850675 32.2265625 7.1875 C32.93989746 7.41566406 33.65323242 7.64382812 34.38818359 7.87890625 C48.67314089 12.45228342 61.16301845 20.04183007 72.8515625 29.375 C77.78292643 33.2355145 80.11555364 33.72355341 86.2265625 33.1875 C89.2890625 34.625 89.2890625 34.625 91.2265625 37.1875 C91.48908273 40.33215719 91.24328761 43.19509315 90.2265625 46.1875 C89.2365625 46.8475 88.2465625 47.5075 87.2265625 48.1875 C86.64063616 51.30360554 86.64063616 51.30360554 86.5390625 54.8125 C86.47332031 56.00101563 86.40757812 57.18953125 86.33984375 58.4140625 C86.30246094 59.32929688 86.26507813 60.24453125 86.2265625 61.1875 C85.8965625 61.1875 85.5665625 61.1875 85.2265625 61.1875 C85.2265625 56.5675 85.2265625 51.9475 85.2265625 47.1875 C83.5765625 47.1875 81.9265625 47.1875 80.2265625 47.1875 C77.9140625 45.375 77.9140625 45.375 76.2265625 43.1875 C76.2265625 42.1975 76.2265625 41.2075 76.2265625 40.1875 C74.79606567 40.2486499 74.79606567 40.2486499 73.33666992 40.31103516 C69.79798129 40.4595195 66.25887774 40.59415272 62.71948242 40.72460938 C61.18775813 40.78300403 59.65617217 40.84515305 58.12475586 40.91113281 C55.92327053 41.00532927 53.72164061 41.08600637 51.51953125 41.1640625 C50.83505417 41.19625885 50.15057709 41.2284552 49.44535828 41.2616272 C45.75356607 41.37790732 44.39945512 41.30276175 41.2265625 39.1875 C45.66803819 38.32833904 49.85426074 38.07052435 54.375 38.08984375 C55.36108749 38.09196617 55.36108749 38.09196617 56.36709595 38.09413147 C58.44529981 38.09968238 60.52339177 38.11222535 62.6015625 38.125 C64.01952968 38.13002136 65.43749857 38.13458315 66.85546875 38.13867188 C70.31253572 38.14963563 73.76953817 38.16686579 77.2265625 38.1875 C67.98571346 22.05618098 41.39062845 12.30436704 24.24804688 7.32177734 C14.6445222 4.80739424 5.12385451 2.99155579 -4.7734375 2.1875 C-2.7734375 0.1875 -2.7734375 0.1875 0 0 Z " fill="#2DA0FA" transform="translate(264.7734375,94.8125)"/>
<path d="M0 0 C0.66 0.99 1.32 1.98 2 3 C1.18208984 3.60134766 1.18208984 3.60134766 0.34765625 4.21484375 C-15.04481052 15.81839562 -25.59911014 30.41019437 -35 47 C-35.50144531 47.85335937 -36.00289062 48.70671875 -36.51953125 49.5859375 C-37.8283663 51.83402451 -37.8283663 51.83402451 -39 55 C-38.37804994 56.35476948 -37.70749422 57.68787419 -37 59 C-36.42474379 62.82508024 -36.51109519 66.02219037 -38.25 69.5 C-40 71 -40 71 -44 71 C-43.38220319 75.02197416 -42.75447559 79.0423385 -42.125 83.0625 C-41.95097656 84.19623047 -41.77695313 85.32996094 -41.59765625 86.49804688 C-40.54519388 93.35559969 -40.54519388 93.35559969 -38.8046875 100.05859375 C-38.01488931 102.94557449 -37.90421236 104.2605309 -39 107 C-43.31425078 96.31709331 -45.4390489 85.38576095 -47 74 C-47.99 74.99 -47.99 74.99 -49 76 C-48.67 74.02 -48.34 72.04 -48 70 C-48.99 69.67 -49.98 69.34 -51 69 C-52.54586876 65.90826248 -52.29359521 63.40570448 -52 60 C-50.375 57.625 -50.375 57.625 -48 56 C-47.03707031 55.93683594 -46.07414062 55.87367188 -45.08203125 55.80859375 C-41.75004953 55.2918079 -41.75004953 55.2918079 -40.05078125 52.18359375 C-39.45367912 50.94325054 -38.87541037 49.69373013 -38.3125 48.4375 C-31.54523039 34.67876902 -22.72277624 22.91773581 -12 12 C-11.23171875 11.21625 -10.4634375 10.4325 -9.671875 9.625 C-7.79547675 7.73470251 -5.90228875 5.86415824 -4 4 C-2.66549451 2.66783986 -1.33186894 1.33479612 0 0 Z " fill="#239BFA" transform="translate(157,130)"/>
<path d="M0 0 C2.4375 2.375 2.4375 2.375 4 5 C4 5.66 4 6.32 4 7 C4.99 7.33 5.98 7.66 7 8 C6.01 8.495 6.01 8.495 5 9 C5 9.99 5 10.98 5 12 C7.42174659 14.07869959 7.42174659 14.07869959 10.4375 16.0625 C15.90670554 19.81341108 15.90670554 19.81341108 17 22 C12.52826088 20.60258152 9.48662721 18.12235607 5.96484375 15.14453125 C4.08457765 13.77440485 4.08457765 13.77440485 2.0078125 14.30078125 C1.34523438 14.53152344 0.68265625 14.76226562 0 15 C-2.87703577 15.38654991 -5.03424314 15.28245303 -8 15 C-10.02829372 12.59140121 -11 11.16955691 -11 8 C-11.66 7.67 -12.32 7.34 -13 7 C-12.34 7 -11.68 7 -11 7 C-10.896875 6.401875 -10.79375 5.80375 -10.6875 5.1875 C-8.92703098 -0.41399233 -5.53290485 -0.77654805 0 0 Z " fill="#1A98F9" transform="translate(255,88)"/>
<path d="M0 0 C16.22911664 7.48760569 27.70317195 27.94962821 34 44 C34.60422228 45.96683054 35.17113312 47.94579917 35.6875 49.9375 C36.06455078 51.37416016 36.06455078 51.37416016 36.44921875 52.83984375 C36.63097656 53.55269531 36.81273437 54.26554687 37 55 C36.34 55 35.68 55 35 55 C34.53851563 54.030625 34.07703125 53.06125 33.6015625 52.0625 C25.80291138 35.92862129 16.62190403 19.37155612 3.6796875 6.734375 C2 5 2 5 2 3 C1.34 3 0.68 3 0 3 C0 2.01 0 1.02 0 0 Z " fill="#E6F4FD" transform="translate(356,139)"/>
<path d="M0 0 C2.89932357 2.39509338 3.50168276 4.31245243 4 8 C4.99 7.67 5.98 7.34 7 7 C10.0834232 8.51518119 12.627139 10.52253492 15 13 C15.82377719 17.20126369 15.38158405 18.42762392 13 22 C12.34 22 11.68 22 11 22 C10.67 23.32 10.34 24.64 10 26 C10 25.34 10 24.68 10 24 C8.1128125 23.9071875 8.1128125 23.9071875 6.1875 23.8125 C3.96875 23.546875 3.96875 23.546875 2 23 C0.1875 20.5625 0.1875 20.5625 -1 18 C-1.99 17.34 -2.98 16.68 -4 16 C-3.01 15.67 -2.02 15.34 -1 15 C1.0649633 12.34504719 2.09009006 10.90090055 1.75 7.5 C1.37875 6.2625 1.37875 6.2625 1 5 C0.5 2.5 0.5 2.5 0 0 Z " fill="#1D99FB" transform="translate(387,186)"/>
<path d="M0 0 C2.6875 2.375 2.6875 2.375 5 5 C5.99 5.66 6.98 6.32 8 7 C7.01 7 6.02 7 5 7 C4.9175 7.763125 4.835 8.52625 4.75 9.3125 C4 12 4 12 2.375 13.8125 C-0.8313755 15.41568775 -3.46750852 15.20379759 -7 15 C-7.66 13.68 -8.32 12.36 -9 11 C-9.66 11 -10.32 11 -11 11 C-11 8.69 -11 6.38 -11 4 C-10.01 3.67 -9.02 3.34 -8 3 C-8 2.34 -8 1.68 -8 1 C-5.11138291 -0.44430855 -3.20352299 -0.37688506 0 0 Z " fill="#219AFA" transform="translate(301,129)"/>
<path d="M0 0 C11.36152821 0.59148954 21.485408 3.56850675 32.2265625 7.1875 C32.93989746 7.41566406 33.65323242 7.64382812 34.38818359 7.87890625 C51.47298486 13.3486629 65.9288013 23.59060625 80.2265625 34.1875 C79.2365625 34.6825 79.2365625 34.6825 78.2265625 35.1875 C77.7315625 36.1775 77.7315625 36.1775 77.2265625 37.1875 C76.25203125 35.88232422 76.25203125 35.88232422 75.2578125 34.55078125 C71.96635725 30.61970497 68.05262232 28.06487042 63.7265625 25.375 C62.4888208 24.6005957 62.4888208 24.6005957 61.22607422 23.81054688 C41.48260768 11.81695617 18.33141905 3.7313729 -4.7734375 2.1875 C-2.7734375 0.1875 -2.7734375 0.1875 0 0 Z " fill="#4AADFB" transform="translate(264.7734375,94.8125)"/>
<path d="M0 0 C0.99 0.99 0.99 0.99 2 2 C0.87207031 2.14695312 -0.25585938 2.29390625 -1.41796875 2.4453125 C-22.88045278 5.42730297 -55.7596377 11.67411444 -71 29 C-71 28.34 -71 27.68 -71 27 C-71.99 26.67 -72.98 26.34 -74 26 C-73.41863281 25.88785156 -72.83726562 25.77570313 -72.23828125 25.66015625 C-69.77380371 24.93328591 -68.26426456 23.940799 -66.1875 22.4375 C-48.33034952 10.28997675 -22.10542788 -1.50718826 0 0 Z " fill="#4CABFA" transform="translate(242,95)"/>
<path d="M0 0 C1.32 0 2.64 0 4 0 C5.41205724 13.92484166 4.73739199 25.54833265 0.62695312 38.95019531 C0.10653573 40.65168459 -0.36695917 42.3674422 -0.828125 44.0859375 C-2.53136856 50.36417248 -5.18512819 56.14773687 -8 62 C-8.66 61.34 -9.32 60.68 -10 60 C-9.77860352 59.43829102 -9.55720703 58.87658203 -9.32910156 58.29785156 C-1.9382995 39.34017509 2.47248017 21.36226526 3 1 C2.01 0.67 1.02 0.34 0 0 Z " fill="#55AFFA" transform="translate(346,142)"/>
<path d="M0 0 C0.99 0.33 1.98 0.66 3 1 C2.42338608 3.27271763 1.838812 5.54293731 1.25 7.8125 C0.92515625 9.07707031 0.6003125 10.34164062 0.265625 11.64453125 C-2.38762235 21.13580454 -6.1916975 29.8115794 -10.8125 38.5 C-11.34004883 39.50232666 -11.86759766 40.50465332 -12.41113281 41.53735352 C-15.97100387 48.23748484 -19.66853883 54.76208584 -24 61 C-24.66 60.34 -25.32 59.68 -26 59 C-25.3709375 58.030625 -24.741875 57.06125 -24.09375 56.0625 C-12.98992863 38.75911772 -3.26064203 20.5420448 0 0 Z " fill="#62B9FA" transform="translate(391,209)"/>
<path d="M0 0 C0.66 0.66 1.32 1.32 2 2 C1.57589844 3.08152344 1.15179688 4.16304687 0.71484375 5.27734375 C-2.91847526 14.73212385 -6.07643678 24.24587982 -8.8125 34 C-9.1019751 35.02472412 -9.3914502 36.04944824 -9.68969727 37.10522461 C-11.49815488 43.68622261 -12.89554503 50.26555888 -14 57 C-16 55 -16 55 -16.05126953 53.14575195 C-15.33336772 47.71490241 -14.30085516 42.47641471 -12.875 37.1875 C-12.55329834 35.9794873 -12.55329834 35.9794873 -12.22509766 34.74707031 C-8.98145398 22.90925462 -4.95527792 11.23196328 0 0 Z " fill="#6EBEFB" transform="translate(157,216)"/>
<path d="M0 0 C5.20707123 4.85152231 8.48502011 10.89098272 12 17 C12.40057617 17.69577148 12.80115234 18.39154297 13.21386719 19.10839844 C18.50572823 28.42820695 22.97315273 37.87836321 26.6875 47.9375 C27.03876953 48.87907959 27.39003906 49.82065918 27.75195312 50.79077148 C28.06455078 51.67321533 28.37714844 52.55565918 28.69921875 53.46484375 C28.97596436 54.244646 29.25270996 55.02444824 29.5378418 55.82788086 C30.05291447 58.24869522 29.78618326 59.67843153 29 62 C28.34 61.67 27.68 61.34 27 61 C26.5230838 58.88794253 26.05346283 56.77396878 25.62109375 54.65234375 C24.51842939 49.94348149 22.75308745 45.49918247 21 41 C20.65195312 40.07445312 20.30390625 39.14890625 19.9453125 38.1953125 C14.93223842 25.43790328 7.77718715 10.77718715 -2 1 C-1.34 0.67 -0.68 0.34 0 0 Z " fill="#7AC9FD" transform="translate(303,142)"/>
<path d="M0 0 C0.66 1.32 1.32 2.64 2 4 C1.53851563 4.47566406 1.07703125 4.95132813 0.6015625 5.44140625 C-12.46898369 19.46770384 -21.48513047 36.39959024 -27.9921875 54.328125 C-28.86753201 56.64880579 -29.84229178 58.8097412 -31 61 C-32.01597847 57.22536063 -32.03829589 55.17930363 -30.41015625 51.62890625 C-30.04237061 50.81454102 -29.67458496 50.00017578 -29.2956543 49.16113281 C-28.88871338 48.30358398 -28.48177246 47.44603516 -28.0625 46.5625 C-27.64718018 45.67014648 -27.23186035 44.77779297 -26.80395508 43.85839844 C-20.11898635 29.69059818 -12.18610042 15.18610042 -1 4 C-0.3574765 1.93125966 -0.3574765 1.93125966 0 0 Z " fill="#80CAFC" transform="translate(195,141)"/>
<path d="M0 0 C0.66 0.99 1.32 1.98 2 3 C1.18208984 3.60134766 1.18208984 3.60134766 0.34765625 4.21484375 C-17.85787344 17.93901228 -30.41388376 36.52713869 -40 57 C-40.66 56.34 -41.32 55.68 -42 55 C-33.97053872 38.98709155 -24.57667138 24.80533813 -12 12 C-11.23171875 11.21625 -10.4634375 10.4325 -9.671875 9.625 C-7.79547675 7.73470251 -5.90228875 5.86415824 -4 4 C-2.66549451 2.66783986 -1.33186894 1.33479612 0 0 Z " fill="#6EC2FC" transform="translate(157,130)"/>
<path d="M0 0 C3.76214615 4.65348331 5.61908464 9.91946355 7.8125 15.4375 C8.25247314 16.54319336 8.69244629 17.64888672 9.14575195 18.78808594 C11.96863631 26.02370146 14.51599967 33.29258443 16.6875 40.75 C17.07095581 42.04248657 17.07095581 42.04248657 17.4621582 43.36108398 C18.62504136 47.56017385 19.43429599 50.72319015 18 55 C17.67 55 17.34 55 17 55 C16.74605469 53.87722656 16.49210937 52.75445312 16.23046875 51.59765625 C15.88304295 50.08588452 15.53537356 48.57416876 15.1875 47.0625 C14.9390332 45.95938477 14.9390332 45.95938477 14.68554688 44.83398438 C12.38167076 34.87950077 8.70819974 25.58096246 4.875 16.125 C3.97583236 13.89873226 3.07736137 11.67218298 2.1796875 9.4453125 C1.78507324 8.47094238 1.39045898 7.49657227 0.98388672 6.49267578 C0.26917945 4.68196581 -0.38441271 2.84676186 -1 1 C-0.67 0.67 -0.34 0.34 0 0 Z " fill="#51B0FB" transform="translate(338,218)"/>
<path d="M0 0 C-0.71430176 0.10546143 -1.42860352 0.21092285 -2.16455078 0.31958008 C-19.95205312 2.9082408 -19.95205312 2.9082408 -37.55859375 6.484375 C-40 7 -40 7 -43 7 C-43.33 7.66 -43.66 8.32 -44 9 C-44 7.68 -44 6.36 -44 5 C-35.12654999 2.97677124 -26.24797708 0.98258473 -17.3125 -0.75 C-16.07113281 -0.99234375 -14.82976562 -1.2346875 -13.55078125 -1.484375 C-4.25203252 -2.83468835 -4.25203252 -2.83468835 0 0 Z " fill="#78C2FC" transform="translate(386,204)"/>
<path d="M0 0 C0.66 0.99 1.32 1.98 2 3 C0.36804688 4.10794922 0.36804688 4.10794922 -1.296875 5.23828125 C-10.5526734 11.59966198 -18.88346701 18.24558925 -27 26 C-29.30661222 28.03501453 -31.64565299 30.0202082 -34 32 C-34 29 -34 29 -32.0859375 26.6875 C-22.56315746 17.24704947 -12.47146015 8.97284833 -1 2 C-0.67 1.34 -0.34 0.68 0 0 Z " fill="#42A5F9" transform="translate(244,98)"/>
<path d="M0 0 C2 1 2 1 2.875 2.75 C3.0641401 6.15452188 1.17173903 7.46630447 -1 10 C-2.04451438 11.97711651 -3.05698138 13.97250996 -4 16 C-4.66 16 -5.32 16 -6 16 C-6.66 16.66 -7.32 17.32 -8 18 C-7.9639746 10.21851268 -5.47450401 5.47450401 0 0 Z " fill="#E1F2FD" transform="translate(234,275)"/>
<path d="M0 0 C8.415 1.98 8.415 1.98 17 4 C17 4.66 17 5.32 17 6 C18.03125 6.103125 19.0625 6.20625 20.125 6.3125 C23.97744377 6.99599809 26.53633024 8.26816512 30 10 C32.75146274 10.25284367 32.75146274 10.25284367 35 10 C35 10.66 35 11.32 35 12 C30.77658453 13.22835423 28.73466358 12.76533569 24.8125 10.875 C16.80922977 7.29907075 8.45773208 5.20840782 0 3 C0 2.01 0 1.02 0 0 Z " fill="#5EB5FA" transform="translate(120,194)"/>
<path d="M0 0 C0.33 0 0.66 0 1 0 C1.33 4.29 1.66 8.58 2 13 C2.33 13 2.66 13 3 13 C3.48173829 15.66622447 3.96044625 18.33293671 4.4375 21 C4.57220703 21.74378906 4.70691406 22.48757812 4.84570312 23.25390625 C5.71983371 28.15756564 6.42093462 33.05264526 7 38 C7.99 38.33 8.98 38.66 10 39 C8.35 39 6.7 39 5 39 C4.72285156 37.80761719 4.44570312 36.61523438 4.16015625 35.38671875 C3.79434477 33.82029523 3.42845529 32.25388993 3.0625 30.6875 C2.88009766 29.90181641 2.69769531 29.11613281 2.50976562 28.30664062 C2.33251953 27.54931641 2.15527344 26.79199219 1.97265625 26.01171875 C1.72914429 24.96697388 1.72914429 24.96697388 1.48071289 23.90112305 C1.06234435 22.2465594 0.53968631 20.61905892 0 19 C-0.0806622 17.51876453 -0.10761193 16.03417796 -0.09765625 14.55078125 C-0.09443359 13.70322266 -0.09121094 12.85566406 -0.08789062 11.98242188 C-0.07951172 11.10134766 -0.07113281 10.22027344 -0.0625 9.3125 C-0.05798828 8.41982422 -0.05347656 7.52714844 -0.04882812 6.60742188 C-0.03704983 4.40488013 -0.02060164 2.20247401 0 0 Z " fill="#69B8FB" transform="translate(153,162)"/>
<path d="M0 0 C0.66 0.66 1.32 1.32 2 2 C1.29915283 2.40839111 0.59830566 2.81678223 -0.1237793 3.23754883 C-3.31187828 5.09553651 -6.49969186 6.95401335 -9.6875 8.8125 C-10.79029297 9.45509766 -11.89308594 10.09769531 -13.02929688 10.75976562 C-14.09599609 11.38173828 -15.16269531 12.00371094 -16.26171875 12.64453125 C-17.24100342 13.21534424 -18.22028809 13.78615723 -19.22924805 14.37426758 C-21.07961917 15.45996864 -22.91472696 16.57210261 -24.73364258 17.7097168 C-27 19 -27 19 -29 19 C-29 20.98 -29 22.96 -29 25 C-29.33 25 -29.66 25 -30 25 C-30.33 22.69 -30.66 20.38 -31 18 C-30.41621582 17.66790527 -29.83243164 17.33581055 -29.23095703 16.99365234 C-26.52829085 15.45529368 -23.82664293 13.91515493 -21.125 12.375 C-20.2071875 11.85292969 -19.289375 11.33085937 -18.34375 10.79296875 C-12.17895534 7.27643095 -6.07003812 3.67766104 0 0 Z " fill="#53AEF9" transform="translate(396,258)"/>
<path d="M0 0 C-2.67242939 2.15479667 -5.01547514 3.50535678 -8.25 4.625 C-13.2241165 6.53583399 -17.7997258 8.96145899 -22.4375 11.5625 C-23.13584961 11.95066895 -23.83419922 12.33883789 -24.55371094 12.73876953 C-25.21532227 13.11501465 -25.87693359 13.49125977 -26.55859375 13.87890625 C-27.14954834 14.2147876 -27.74050293 14.55066895 -28.34936523 14.89672852 C-30.1355964 16.09063158 -31.53176383 17.43747087 -33 19 C-33 18.34 -33 17.68 -33 17 C-33.99 16.67 -34.98 16.34 -36 16 C-35.41863281 15.88785156 -34.83726562 15.77570313 -34.23828125 15.66015625 C-31.77380371 14.93328591 -30.26426456 13.940799 -28.1875 12.4375 C-24.01686421 9.57148905 -19.71157674 7.12338716 -15.25 4.75 C-14.29323364 4.2384436 -14.29323364 4.2384436 -13.31713867 3.71655273 C-3.8366274 -1.2788758 -3.8366274 -1.2788758 0 0 Z " fill="#6BC0FC" transform="translate(204,105)"/>
<path d="M0 0 C1.109375 1.578125 1.109375 1.578125 2 4 C1.390625 7.046875 1.390625 7.046875 0.25 10.75 C-2.84880915 21.60364413 -3.30883289 32.78398737 -4 44 C-4.33 44 -4.66 44 -5 44 C-5.39161811 28.59032961 -5.09231418 14.72343013 0 0 Z " fill="#329AF9" transform="translate(159,133)"/>
<path d="M0 0 C0.33 0 0.66 0 1 0 C1 2.97 1 5.94 1 9 C-24.63636364 24 -24.63636364 24 -29 24 C-29 23.34 -29 22.68 -29 22 C-27.97261719 21.49210937 -26.94523437 20.98421875 -25.88671875 20.4609375 C-12.61657495 14.86375805 -12.61657495 14.86375805 -1 7 C-0.63239269 4.67182036 -0.29758419 2.3381615 0 0 Z " fill="#51ADFA" transform="translate(350,278)"/>
<path d="M0 0 C24.39136402 1.42261402 24.39136402 1.42261402 31.12109375 8.15234375 C25.12369263 7.71616912 19.50544363 6.5864352 13.68359375 5.15234375 C7.48031178 3.62696879 1.51576353 2.55835453 -4.87890625 2.15234375 C-2.87890625 0.15234375 -2.87890625 0.15234375 0 0 Z " fill="#4FAFFA" transform="translate(264.87890625,94.84765625)"/>
<path d="M0 0 C0.66 0.99 1.32 1.98 2 3 C1.36752123 5.88195514 0.63611884 8.57189435 -0.25 11.375 C-2.50056567 18.90220413 -4.07476646 26.18384798 -5 34 C-5.66 33.67 -6.32 33.34 -7 33 C-5.96299104 21.50003499 -3.55971834 10.97806268 0 0 Z " fill="#50ABFA" transform="translate(107,204)"/>
<path d="M0 0 C3.41530332 3.9589951 5.80832356 8.04095921 8.125 12.6875 C8.47755859 13.39068359 8.83011719 14.09386719 9.19335938 14.81835938 C11.74570825 20.08227737 13.43644039 25.13898003 14 31 C13.34 31 12.68 31 12 31 C11.8040625 30.319375 11.608125 29.63875 11.40625 28.9375 C9.15990518 21.65624437 6.19681166 15.05925535 2.64257812 8.34570312 C0 3.2953317 0 3.2953317 0 0 Z " fill="#52AFFB" transform="translate(380,162)"/>
<path d="M0 0 C0.33 0 0.66 0 1 0 C1.04253906 0.73476562 1.08507812 1.46953125 1.12890625 2.2265625 C2.36835391 6.17278599 4.50140344 7.15376605 7.9375 9.375 C9.11743939 10.15196134 10.2971238 10.92931005 11.4765625 11.70703125 C12.06727539 12.08939941 12.65798828 12.47176758 13.26660156 12.86572266 C15.82365769 14.53897375 18.31666413 16.29968183 20.8125 18.0625 C21.62332031 18.63097656 22.43414062 19.19945312 23.26953125 19.78515625 C23.84058594 20.18605469 24.41164062 20.58695312 25 21 C24.67 21.66 24.34 22.32 24 23 C17.29248873 18.56290062 10.62846863 14.08414041 4.05859375 9.4453125 C2.38888472 8.27303102 0.69749927 7.13166618 -1 6 C-0.67 4.02 -0.34 2.04 0 0 Z " fill="#4BABFB" transform="translate(107,254)"/>
<path d="M0 0 C1.72620403 2.58930604 2.88523735 4.86851135 4.09375 7.7109375 C4.48433594 8.62617188 4.87492187 9.54140625 5.27734375 10.484375 C5.68082031 11.43828125 6.08429688 12.3921875 6.5 13.375 C6.90347656 14.32117188 7.30695313 15.26734375 7.72265625 16.2421875 C9.52548784 20.47854423 11.30091829 24.7207959 13 29 C12.34 29.33 11.68 29.66 11 30 C9.36249878 26.6726697 7.74234577 23.33716799 6.125 20 C5.66480469 19.06542969 5.20460938 18.13085938 4.73046875 17.16796875 C2.15367377 11.82765451 0.06941969 6.84796592 -1 1 C-0.67 0.67 -0.34 0.34 0 0 Z " fill="#9FDAFD" transform="translate(119,236)"/>
<path d="M0 0 C0.33 0 0.66 0 1 0 C1.87959136 3.30626862 2.72382959 6.62063641 3.5625 9.9375 C3.80935547 10.86369141 4.05621094 11.78988281 4.31054688 12.74414062 C5.85081674 18.92691404 6.07708619 23.71162255 5 30 C4.67 30 4.34 30 4 30 C3.80664062 28.70964844 3.61328125 27.41929687 3.4140625 26.08984375 C3.15127805 24.37235965 2.88824396 22.65491373 2.625 20.9375 C2.49867188 20.08994141 2.37234375 19.24238281 2.2421875 18.36914062 C1.64646405 14.51183128 1.00232621 10.77192332 -0.125 7.03125 C-0.9787358 4.07366527 -1.12314865 2.80787163 0 0 Z " fill="#61B6FC" transform="translate(398,208)"/>
<path d="M0 0 C0.33 0 0.66 0 1 0 C1.19335938 1.21816406 1.38671875 2.43632812 1.5859375 3.69140625 C1.8487383 5.31513979 2.1117715 6.93883574 2.375 8.5625 C2.50132813 9.36236328 2.62765625 10.16222656 2.7578125 10.98632812 C3.36314263 14.69397518 4.0253734 18.25632216 5.1640625 21.83984375 C5.96026003 24.84976806 6.13404269 26.16489327 5 29 C1.55652171 20.47329186 -1.80954134 11.30972537 -1 2 C-0.67 1.34 -0.34 0.68 0 0 Z " fill="#61B9FC" transform="translate(113,208)"/>
<path d="M0 0 C-3.82093377 2.06429669 -7.87200211 3.50277015 -11.9375 5 C-16.31186604 6.61983857 -20.67894831 8.24113747 -25 10 C-25.66 9.34 -26.32 8.68 -27 8 C-21.44272101 5.37722229 -15.85314003 2.85390891 -10.125 0.625 C-8.82949219 0.11839844 -8.82949219 0.11839844 -7.5078125 -0.3984375 C-4.65025284 -1.08389574 -2.80756962 -0.77484896 0 0 Z " fill="#62B4FB" transform="translate(292,140)"/>
<path d="M0 0 C3.36760908 0.5898752 5.09543133 1.68525 7.56640625 4.01953125 C8.5419043 4.93508789 8.5419043 4.93508789 9.53710938 5.86914062 C10.20548828 6.51044922 10.87386719 7.15175781 11.5625 7.8125 C12.57086914 8.75706055 12.57086914 8.75706055 13.59960938 9.72070312 C20.00908233 15.78647048 20.00908233 15.78647048 22 19 C21.67 19.99 21.34 20.98 21 22 C20.443125 21.28714844 19.88625 20.57429688 19.3125 19.83984375 C15.10403475 14.5579355 10.92962655 9.75456516 5.73046875 5.4375 C3.69220142 3.74431179 1.83427067 1.91069862 0 0 Z " fill="#86CEFD" transform="translate(271,110)"/>
<path d="M0 0 C0.66 0 1.32 0 2 0 C5.16032658 6.49711809 7.27068234 12.99102311 9 20 C8.34 20 7.68 20 7 20 C5.81796262 17.79875692 4.65459892 15.59058171 3.5 13.375 C2.99919922 12.44880859 2.99919922 12.44880859 2.48828125 11.50390625 C0.41530572 7.48487206 -0.38860447 4.51058755 0 0 Z " fill="#D9EEFD" transform="translate(384,174)"/>
<path d="M0 0 C0.90596924 0.30373535 1.81193848 0.6074707 2.74536133 0.92041016 C3.72827148 1.24267578 4.71118164 1.56494141 5.72387695 1.89697266 C7.26011719 2.42291016 7.26011719 2.42291016 8.82739258 2.95947266 C9.8631543 3.30236328 10.89891602 3.64525391 11.96606445 3.99853516 C14.52823396 4.84865591 17.08560471 5.71101183 19.63989258 6.58447266 C17.87207031 7.65209961 17.87207031 7.65209961 15.63989258 8.58447266 C12.85130122 7.77223311 10.36025375 6.89374998 7.70239258 5.77197266 C1.33493841 3.14601493 1.33493841 3.14601493 -5.36010742 1.58447266 C-2.36010742 -0.41552734 -2.36010742 -0.41552734 0 0 Z " fill="#5AB3FB" transform="translate(215.360107421875,140.41552734375)"/>
<path d="M0 0 C-14.59681093 2.29612756 -14.59681093 2.29612756 -22 2 C-17.1110833 -2.8889167 -5.54161002 -3.69440668 0 0 Z " fill="#51AFFB" transform="translate(386,204)"/>
<path d="M0 0 C2.89932357 2.39509338 3.50168276 4.31245243 4 8 C4.99 7.67 5.98 7.34 7 7 C7.99 7.99 8.98 8.98 10 10 C7.04816899 12.95183101 4.04488053 13.08663988 0 14 C0.350625 13.443125 0.70125 12.88625 1.0625 12.3125 C2.24653548 9.39187915 1.80766178 8.01037572 1 5 C0.66666667 3.33333333 0.33333333 1.66666667 0 0 Z " fill="#2E9DF9" transform="translate(387,186)"/>
<path d="M0 0 C0.33 0 0.66 0 1 0 C1.1953125 1.98567708 1.390625 3.97135417 1.5859375 5.95703125 C1.92665391 8.29988142 1.92665391 8.29988142 4 11 C2.68 10.67 1.36 10.34 0 10 C-0.66 11.32 -1.32 12.64 -2 14 C-2.99 10.7 -3.98 7.4 -5 4 C-4.34 3.67 -3.68 3.34 -3 3 C-3 3.66 -3 4.32 -3 5 C-2.01 5 -1.02 5 0 5 C0 3.35 0 1.7 0 0 Z " fill="#E1F2FD" transform="translate(237,255)"/>
<path d="M0 0 C1.32 0 2.64 0 4 0 C4.19777236 3.3953164 4.38139685 6.79125692 4.5625 10.1875 C4.61857422 11.14720703 4.67464844 12.10691406 4.73242188 13.09570312 C4.78076172 14.02705078 4.82910156 14.95839844 4.87890625 15.91796875 C4.9260376 16.77156982 4.97316895 17.6251709 5.02172852 18.50463867 C4.99892429 21.12353758 4.59213206 23.45403152 4 26 C2 24 2 24 1.86474609 21.66162109 C1.91711426 20.70852051 1.96948242 19.75541992 2.0234375 18.7734375 C2.075 17.7421875 2.1265625 16.7109375 2.1796875 15.6484375 C2.24414062 14.56820312 2.30859375 13.48796875 2.375 12.375 C2.43171875 11.28703125 2.4884375 10.1990625 2.546875 9.078125 C2.6886302 6.38477613 2.84006642 3.6923207 3 1 C2.01 0.67 1.02 0.34 0 0 Z " fill="#6BBAFB" transform="translate(346,142)"/>
<path d="M0 0 C0.66 0 1.32 0 2 0 C1.33644956 6.74609618 0.28134207 13.34448534 -1 20 C-3 18 -3 18 -3.046875 16.15234375 C-2.31483545 10.69094345 -1.30384066 5.35460775 0 0 Z " fill="#47A4F8" transform="translate(144,253)"/>
<path d="M0 0 C0.99 0.33 1.98 0.66 3 1 C2.38332793 3.46070116 1.75711607 5.91826521 1.125 8.375 C0.95097656 9.07367188 0.77695312 9.77234375 0.59765625 10.4921875 C-0.7734375 15.7734375 -0.7734375 15.7734375 -3 18 C-2.32418477 11.91766294 -1.26361972 5.98685848 0 0 Z " fill="#52B1FB" transform="translate(391,209)"/>
<path d="M0 0 C0.66 0.66 1.32 1.32 2 2 C1.55269531 2.4846875 1.10539063 2.969375 0.64453125 3.46875 C-3.47777883 8.03932834 -6.9238704 12.66993213 -10 18 C-10.66 17.34 -11.32 16.68 -12 16 C-8 10.66666667 -4 5.33333333 0 0 Z " fill="#7FCAFC" transform="translate(138,149)"/>
<path d="M0 0 C0.66 0.66 1.32 1.32 2 2 C-0.2863012 3.36402043 -2.57821749 4.71634274 -4.875 6.0625 C-5.85146484 6.64741211 -5.85146484 6.64741211 -6.84765625 7.24414062 C-8.53065725 8.22444533 -10.26296199 9.11898432 -12 10 C-12.66 9.67 -13.32 9.34 -14 9 C-12.41906946 7.87162591 -10.83515284 6.74743482 -9.25 5.625 C-8.36828125 4.99851562 -7.4865625 4.37203125 -6.578125 3.7265625 C-4.42585021 2.28519059 -2.34539477 1.08501907 0 0 Z " fill="#44A7FB" transform="translate(396,258)"/>
<path d="M0 0 C6.66500865 -0.59244521 11.86952975 1.51677155 18 4 C14.1653439 5.41077471 11.21671707 4.60999698 7.3125 3.6875 C6.15363281 3.42324219 4.99476563 3.15898438 3.80078125 2.88671875 C2.87652344 2.59410156 1.95226562 2.30148438 1 2 C0.67 1.34 0.34 0.68 0 0 Z " fill="#46A9F9" transform="translate(278,98)"/>
<path d="M0 0 C5 3.33333333 10 6.66666667 15 10 C14.01 10.495 14.01 10.495 13 11 C12.67 11.66 12.34 12.32 12 13 C11.34 12.113125 10.68 11.22625 10 10.3125 C6.92337269 6.57976197 3.18067901 4.34449989 -1 2 C-0.67 1.34 -0.34 0.68 0 0 Z " fill="#6DC1FD" transform="translate(330,119)"/>
<path d="M0 0 C0.33 0 0.66 0 1 0 C0.88557539 1.60495567 0.75805306 3.20898119 0.625 4.8125 C0.55539062 5.70582031 0.48578125 6.59914063 0.4140625 7.51953125 C0 10 0 10 -2 13 C-2.99 13.33 -3.98 13.66 -5 14 C-3.45730076 9.27934033 -1.92205381 4.58335908 0 0 Z " fill="#DDF0FD" transform="translate(402,265)"/>
<path d="M0 0 C1.57156655 3.1431331 0.11705576 5.365464 -0.9375 8.625 C-1.31777344 9.81351563 -1.69804687 11.00203125 -2.08984375 12.2265625 C-2.39019531 13.14179688 -2.69054687 14.05703125 -3 15 C-3.66 14.34 -4.32 13.68 -5 13 C-4.75704021 7.77636459 -2.68742135 4.33455057 0 0 Z " fill="#59B4FA" transform="translate(168,187)"/>
<path d="M0 0 C0.66 0.33 1.32 0.66 2 1 C2 1.99 2 2.98 2 4 C-4.93 4 -11.86 4 -19 4 C-19 3.67 -19 3.34 -19 3 C-17.79601562 2.95101562 -16.59203125 2.90203125 -15.3515625 2.8515625 C-13.77601802 2.77653657 -12.20049834 2.70098867 -10.625 2.625 C-9.8309375 2.5940625 -9.036875 2.563125 -8.21875 2.53125 C-3.63332625 2.48183579 -3.63332625 2.48183579 0 0 Z " fill="#CEE8FB" transform="translate(340,129)"/>
<path d="M0 0 C0.66 0.66 1.32 1.32 2 2 C-0.97 4.97 -3.94 7.94 -7 11 C-7.66 10.34 -8.32 9.68 -9 9 C-6.03 6.03 -3.06 3.06 0 0 Z " fill="#5BB1F8" transform="translate(218,119)"/>
<path d="M0 0 C1.32 0 2.64 0 4 0 C4 1.65 4 3.3 4 5 C3.34 4.67 2.68 4.34 2 4 C1.01 5.485 1.01 5.485 0 7 C-0.99 7 -1.98 7 -3 7 C-1.125 1.125 -1.125 1.125 0 0 Z " fill="#2B9EFA" transform="translate(396,284)"/>
<path d="M0 0 C2.34914492 2.34914492 2.73140357 3.95679446 3.625 7.125 C3.88539062 8.03507812 4.14578125 8.94515625 4.4140625 9.8828125 C4.70410156 10.93082031 4.70410156 10.93082031 5 12 C4.01 12.33 3.02 12.66 2 13 C0.54815522 8.46298506 -0.23509196 4.81938524 0 0 Z " fill="#D6ECFD" transform="translate(102,267)"/>
<path d="M0 0 C0.2475 0.5775 0.495 1.155 0.75 1.75 C2.16683317 4.3002997 3.87627537 6.01785701 6 8 C3 8 3 8 0 6 C0 6.99 0 7.98 0 9 C0.66 9.33 1.32 9.66 2 10 C1.01 10 0.02 10 -1 10 C-1.66 9.34 -2.32 8.68 -3 8 C-2.34 8 -1.68 8 -1 8 C-0.67 5.36 -0.34 2.72 0 0 Z " fill="#4AAEFC" transform="translate(356,133)"/>
<path d="M0 0 C0.66 0.66 1.32 1.32 2 2 C0.21046815 2.83790789 -1.58169695 3.67019396 -3.375 4.5 C-4.87160156 5.19609375 -4.87160156 5.19609375 -6.3984375 5.90625 C-9 7 -9 7 -11 7 C-11 6.34 -11 5.68 -11 5 C-7.37 3.35 -3.74 1.7 0 0 Z " fill="#62B6FB" transform="translate(332,295)"/>
<path d="M0 0 C0.66 0.66 1.32 1.32 2 2 C1.35474023 3.4585872 0.7087728 4.91686137 0.0625 6.375 C-0.29714844 7.18710937 -0.65679687 7.99921875 -1.02734375 8.8359375 C-1.6569903 10.23683785 -2.31312642 11.62625284 -3 13 C-3.66 13 -4.32 13 -5 13 C-4.54554036 11.58208592 -4.08625056 10.16571954 -3.625 8.75 C-3.24214844 7.56664062 -3.24214844 7.56664062 -2.8515625 6.359375 C-2.04826333 4.13372042 -1.10288338 2.09068328 0 0 Z " fill="#5CB4FA" transform="translate(399,268)"/>
<path d="M0 0 C4.83540096 2.61111652 8.87103901 5.37457083 13 9 C9.19794574 9 7.88843439 7.7999031 4.8125 5.625 C3.91144531 4.99851562 3.01039063 4.37203125 2.08203125 3.7265625 C1.39496094 3.15679687 0.70789063 2.58703125 0 2 C0 1.34 0 0.68 0 0 Z " fill="#49AAFC" transform="translate(259,100)"/>
<path d="M0 0 C1.60938465 2.41407698 2.65490738 4.34044437 3.6875 7 C3.95949219 7.680625 4.23148437 8.36125 4.51171875 9.0625 C5 11 5 11 4 14 C-0.62339056 6.39377682 -0.62339056 6.39377682 -1 2 C-0.67 1.34 -0.34 0.68 0 0 Z " fill="#5AB0FA" transform="translate(104,266)"/>
<path d="M0 0 C1.71056541 2.58430745 2.05220752 3.68321539 1.5390625 6.796875 C1.23742187 7.77140625 0.93578125 8.7459375 0.625 9.75 C0.32851562 10.73484375 0.03203125 11.7196875 -0.2734375 12.734375 C-0.51320312 13.48203125 -0.75296875 14.2296875 -1 15 C-2.71056541 12.41569255 -3.05220752 11.31678461 -2.5390625 8.203125 C-2.23742187 7.22859375 -1.93578125 6.2540625 -1.625 5.25 C-1.32851562 4.26515625 -1.03203125 3.2803125 -0.7265625 2.265625 C-0.48679688 1.51796875 -0.24703125 0.7703125 0 0 Z " fill="#52AEFA" transform="translate(159,133)"/>
<path d="M0 0 C0.99 0 1.98 0 3 0 C3 0.99 3 1.98 3 3 C3.66 3.33 4.32 3.66 5 4 C3.02 4.66 1.04 5.32 -1 6 C-1.33 5.01 -1.66 4.02 -2 3 C-1.34 2.01 -0.68 1.02 0 0 Z " fill="#DFF0FD" transform="translate(366,270)"/>
<path d="M0 0 C-3.79541663 2.21399303 -7.75629421 3.00980198 -12 4 C-12 3.34 -12 2.68 -12 2 C-4.71428571 -1.57142857 -4.71428571 -1.57142857 0 0 Z " fill="#54ABF9" transform="translate(292,140)"/>
<path d="M0 0 C1.98 0 3.96 0 6 0 C5.67 1.65 5.34 3.3 5 5 C3.35 4.67 1.7 4.34 0 4 C0 2.68 0 1.36 0 0 Z " fill="#F2F9FE" transform="translate(263,261)"/>
<path d="M0 0 C2.18975773 3.28463659 2.99806563 6.20696275 4 10 C3.01 10.495 3.01 10.495 2 11 C1.01 7.7 0.02 4.4 -1 1 C-0.67 0.67 -0.34 0.34 0 0 Z " fill="#AFE1FE" transform="translate(119,236)"/>
<path d="M0 0 C0.66 0.33 1.32 0.66 2 1 C2.625 3.0625 2.625 3.0625 3 5 C0.37886292 5 -1.50935112 4.68707555 -4 4 C-2.68 2.68 -1.36 1.36 0 0 Z " fill="#D1EAFC" transform="translate(234,275)"/>
<path d="M0 0 C0.66 0.99 1.32 1.98 2 3 C1.5390625 5.04296875 1.5390625 5.04296875 0.625 7.1875 C0.32851563 7.90292969 0.03203125 8.61835938 -0.2734375 9.35546875 C-0.51320313 9.89816406 -0.75296875 10.44085938 -1 11 C-1.66 10.34 -2.32 9.68 -3 9 C-2.01 6.03 -1.02 3.06 0 0 Z " fill="#85C9FB" transform="translate(387,225)"/>
<path d="M0 0 C1.76462683 3.08809695 2 4.23312136 2 8 C2.99 8.33 3.98 8.66 5 9 C3.35 9 1.7 9 0 9 C-1.125 2.25 -1.125 2.25 0 0 Z " fill="#5EB3FA" transform="translate(158,192)"/>
<path d="M0 0 C4.41889613 1.35021826 6.34345343 3.26115668 9 7 C6 7 6 7 4.39453125 5.46875 C3.87246094 4.8190625 3.35039062 4.169375 2.8125 3.5 C2.28269531 2.8503125 1.75289063 2.200625 1.20703125 1.53125 C0.80871094 1.0259375 0.41039062 0.520625 0 0 Z " fill="#42A2FA" transform="translate(361,141)"/>
<path d="M0 0 C0 3.38023517 -0.87455622 5.83468937 -2 9 C-2.33 9 -2.66 9 -3 9 C-3 7.35 -3 5.7 -3 4 C-4.32 3.67 -5.64 3.34 -7 3 C-7 2.67 -7 2.34 -7 2 C-4.69 1.34 -2.38 0.68 0 0 Z " fill="#3AA4FA" transform="translate(198,132)"/>
<path d="M0 0 C0.66 0.66 1.32 1.32 2 2 C1.9765625 4.1640625 1.9765625 4.1640625 1.625 6.625 C1.51414063 7.44226563 1.40328125 8.25953125 1.2890625 9.1015625 C1.19367188 9.72804688 1.09828125 10.35453125 1 11 C0.34 10.34 -0.32 9.68 -1 9 C-0.9765625 6.8359375 -0.9765625 6.8359375 -0.625 4.375 C-0.51414063 3.55773437 -0.40328125 2.74046875 -0.2890625 1.8984375 C-0.19367188 1.27195312 -0.09828125 0.64546875 0 0 Z " fill="#6ABDFB" transform="translate(142,262)"/>
<path d="M0 0 C0.66 0 1.32 0 2 0 C3.42944945 2.35438733 4.08661261 3.48032433 3.625 6.25 C3.41875 6.8275 3.2125 7.405 3 8 C0.37613513 4.93882432 0 4.26826873 0 0 Z " fill="#32A4FB" transform="translate(159,315)"/>
<path d="M0 0 C2.62901288 1.52206009 4.84365964 2.84365964 7 5 C4.36 5 1.72 5 -1 5 C-0.67 3.35 -0.34 1.7 0 0 Z " fill="#1598FA" transform="translate(356,270)"/>
<path d="M0 0 C2.12508244 3.18762365 2.5020163 5.26512223 3 9 C2.34 9 1.68 9 1 9 C-0.61949011 6.42786866 -1.04408751 5.32330841 -0.625 2.25 C-0.41875 1.5075 -0.2125 0.765 0 0 Z " fill="#65BAFB" transform="translate(350,247)"/>
<path d="M0 0 C0.33 0 0.66 0 1 0 C1.33 2.97 1.66 5.94 2 9 C0.68 8.34 -0.64 7.68 -2 7 C-1.34 4.69 -0.68 2.38 0 0 Z " fill="#CDE8FD" transform="translate(110,202)"/>
<path d="M0 0 C3.25696479 0.41755959 4.63443291 0.63443291 7 3 C5.25 3.6875 5.25 3.6875 3 4 C0.75 2.5625 0.75 2.5625 -1 1 C-0.67 0.67 -0.34 0.34 0 0 Z " fill="#67B6F8" transform="translate(306,106)"/>
</svg>
